<svg width="392" height="365" viewBox="0 0 392 365" fill="none" xmlns="http://www.w3.org/2000/svg">
<g style="mix-blend-mode:multiply">
<path d="M384.987 115.294C392.893 135.742 391.214 157.446 389.973 178.83C390.639 187.139 389.515 195.356 388.258 203.547C387.398 208.467 387.917 214.358 385.007 218.597C380.102 248.147 371.214 277.798 352.12 301.421C352.033 301.538 351.947 301.655 351.855 301.772C351.021 302.886 350.146 303.97 349.235 305.023C349.215 305.048 349.194 305.074 349.169 305.099C346.085 308.661 342.605 311.866 338.851 314.705C333.666 318.333 328.807 322.383 324.177 326.697C314.572 334.507 303.323 340.185 292.033 345.146C285.042 348.07 278.611 352.497 271.178 354.247C263.567 355.946 255.665 355.647 247.937 356.461C243.765 356.898 239.633 357.788 235.492 358.582H235.487C234.586 358.755 233.686 358.923 232.79 359.081C228.659 359.808 224.508 360.327 220.295 360.093C219.888 360.073 219.486 360.058 219.079 360.042C218 359.991 216.916 359.945 215.838 359.905C206.766 359.544 197.675 359.274 188.643 358.526C178.061 357.651 167.565 356.114 157.303 352.996C155.7 352.808 154.154 352.629 152.658 352.451C152.591 352.441 152.53 352.436 152.469 352.431C143.596 351.357 136.341 350.203 128.414 346.397C128.282 346.336 128.145 346.27 128.007 346.198C126.171 345.298 124.288 344.255 122.345 343.034C109.63 337.401 96.2901 333.326 84.3131 326.056C83.8451 325.776 83.3821 325.491 82.9191 325.196C74.4991 319.594 66.6691 313.087 58.5231 307.094C50.0721 299.722 43.5851 290.548 37.1491 281.456C33.7761 276.984 30.6471 272.314 28.3781 267.175C24.8931 259.35 21.5861 251.443 18.2991 243.532C9.70112 225.663 10.2351 204.58 9.48212 185.083C9.37513 166.055 10.3211 146.009 18.1771 128.415C22.7261 118.896 26.8011 109.117 31.8831 99.8676C35.2411 93.9396 39.8411 88.7916 44.3031 83.6776C49.8381 77.8316 53.5121 70.7447 58.7161 64.6747C73.1301 49.3246 90.8821 38.3106 109.386 28.5716C126.659 20.0546 144.364 11.6146 162.92 6.33862C172.632 4.92863 182.335 3.69265 191.915 1.48465C211.819 -1.44635 231.737 0.431625 251.534 3.07162C257.426 3.58063 263.261 4.57265 268.919 6.30765C282.412 9.46265 296.261 11.1156 308.202 18.7576C321.288 23.3566 330.262 33.7616 340.423 42.5936C345.439 46.7656 349.098 52.1187 352.766 57.4507" fill="#FCCD8E"/>
</g>
<path d="M54.001 167.538L56.0176 167.709C56.3138 171.902 56.4619 175.445 56.4619 178.339C56.4619 180.435 56.4049 182.828 56.291 185.517C56.2454 186.656 56.1543 187.624 56.0176 188.422C55.8809 189.197 55.6416 189.96 55.2998 190.712C54.958 191.464 54.4909 192.068 53.8984 192.523C53.3288 192.956 52.5768 193.298 51.6426 193.549C50.7083 193.822 49.5804 193.959 48.2588 193.959C47.3018 193.959 46.4587 193.868 45.7295 193.686C45.0003 193.526 44.3851 193.31 43.8838 193.036C43.4053 192.763 42.9951 192.41 42.6533 191.977C42.3115 191.521 42.0381 191.054 41.833 190.575C41.6507 190.097 41.5026 189.527 41.3887 188.866C41.2975 188.205 41.2292 187.579 41.1836 186.986C41.138 186.394 41.0924 185.699 41.0469 184.901C41.0469 184.833 41.0469 184.787 41.0469 184.765C40.9329 181.985 40.876 179.626 40.876 177.689C40.876 176.049 40.9443 172.745 41.0811 167.777L42.9609 168.188C43.0065 170.284 43.1318 173.28 43.3369 177.177C43.542 181.05 43.6787 183.808 43.7471 185.448C43.7699 186.223 43.804 186.838 43.8496 187.294C43.8952 187.75 43.9977 188.274 44.1572 188.866C44.3395 189.459 44.5788 189.914 44.875 190.233C45.1712 190.552 45.5928 190.826 46.1396 191.054C46.6865 191.282 47.3587 191.396 48.1562 191.396C48.9538 191.396 49.6374 191.35 50.207 191.259C50.7995 191.145 51.278 190.951 51.6426 190.678C52.0299 190.404 52.3376 190.131 52.5654 189.857C52.8161 189.584 53.0098 189.185 53.1465 188.661C53.2832 188.114 53.3743 187.647 53.4199 187.26C53.4883 186.85 53.5566 186.257 53.625 185.482C53.7845 183.523 53.8757 180.355 53.8984 175.98C53.9212 171.605 53.9554 168.791 54.001 167.538ZM61.1445 191.942L61.5889 168.29H63.4346L74.6113 189.516V186.815C74.6113 179.934 74.7367 173.747 74.9873 168.256L76.9355 168.632C77.1862 173.576 77.3913 181.723 77.5508 193.07C77.0723 193.275 76.571 193.378 76.0469 193.378C75.2721 193.378 74.4632 193.15 73.6201 192.694C72.2301 190.552 70.4984 187.419 68.4248 183.295C66.374 179.171 64.9157 176.345 64.0498 174.818C64.0726 176.368 64.084 179.193 64.084 183.295C64.1068 187.396 64.1523 190.507 64.2207 192.626C64.0156 193.332 63.6169 193.686 63.0244 193.686C62.6143 193.686 62.2155 193.515 61.8281 193.173C61.4635 192.831 61.2357 192.421 61.1445 191.942ZM81.8232 190.951L82.3018 189.037C84.2842 190.108 86.2324 190.644 88.1465 190.644C89.5137 190.644 90.6758 190.37 91.6328 189.823C92.6126 189.254 93.1025 188.342 93.1025 187.089C93.1025 185.972 92.6924 184.958 91.8721 184.047C91.0518 183.113 90.0605 182.292 88.8984 181.586C87.7363 180.88 86.5742 180.162 85.4121 179.433C84.25 178.681 83.2588 177.769 82.4385 176.698C81.6182 175.604 81.208 174.397 81.208 173.075C81.208 171.457 81.7891 169.988 82.9512 168.666C84.1133 167.322 85.5146 166.649 87.1553 166.649C88.4085 166.649 89.7985 166.9 91.3252 167.401C92.8747 167.903 94.1735 168.404 95.2217 168.905L94.8115 170.272C92.2139 169.384 90.0264 168.939 88.249 168.939C87.1553 168.939 86.221 169.293 85.4463 169.999C84.6715 170.705 84.2842 171.617 84.2842 172.733C84.2842 173.576 84.5007 174.34 84.9336 175.023C85.3665 175.707 85.9248 176.299 86.6084 176.801C87.3148 177.302 88.0895 177.792 88.9326 178.271C89.7985 178.749 90.653 179.262 91.4961 179.809C92.3392 180.355 93.1025 180.948 93.7861 181.586C94.4925 182.224 95.0622 183.033 95.4951 184.013C95.9281 184.97 96.1445 186.052 96.1445 187.26C96.1445 188.969 95.5977 190.37 94.5039 191.464C93.4102 192.535 91.986 193.07 90.2314 193.07C88.7275 193.07 87.1211 192.865 85.4121 192.455C83.7259 192.022 82.5296 191.521 81.8232 190.951ZM112.824 191.361L113.166 192.899C112.277 192.899 110.66 192.934 108.312 193.002C105.988 193.093 104.302 193.139 103.254 193.139C101.568 193.139 100.417 193.059 99.8018 192.899C100.03 190.393 100.166 186.2 100.212 180.321C100.257 174.442 100.406 170.341 100.656 168.017C101.431 168.085 103.482 168.142 106.809 168.188C110.158 168.233 112.346 168.336 113.371 168.495L113.747 170.033C112.722 170.215 110.671 170.432 107.595 170.683C104.519 170.933 102.901 171.07 102.741 171.093C102.764 171.617 102.81 172.688 102.878 174.306C102.969 175.924 103.026 177.257 103.049 178.305C103.824 178.396 105.236 178.533 107.287 178.715C109.338 178.874 110.637 178.977 111.184 179.022L111.525 180.595C106.717 181.028 103.903 181.256 103.083 181.278C103.083 182.281 103.06 183.808 103.015 185.858C102.992 187.886 102.98 189.379 102.98 190.336C108.199 190.814 111.48 191.156 112.824 191.361ZM133.571 193.446L134.118 194.848C133.093 194.825 132.022 194.494 130.905 193.856C129.789 193.218 128.741 192.421 127.761 191.464C126.804 190.484 125.938 189.504 125.163 188.524C124.411 187.522 123.762 186.542 123.215 185.585L120.515 185.277C120.56 186.941 120.651 189.527 120.788 193.036C120.583 193.743 120.184 194.096 119.592 194.096C119.182 194.096 118.783 193.925 118.396 193.583C118.031 193.264 117.803 192.865 117.712 192.387C117.78 190.473 117.849 186.747 117.917 181.21C118.008 175.673 118.122 171.389 118.259 168.358L119.797 167.948C119.797 168.677 119.808 169.088 119.831 169.179C121.13 168.313 122.953 167.88 125.3 167.88C127.829 167.88 129.72 168.677 130.974 170.272C132.227 171.845 132.854 174.055 132.854 176.903C132.854 177.951 132.728 178.965 132.478 179.945C132.227 180.902 131.851 181.802 131.35 182.646C130.871 183.489 130.199 184.184 129.333 184.73C128.467 185.277 127.476 185.596 126.359 185.688C127.157 187.351 128.228 188.969 129.572 190.541C130.917 192.113 132.25 193.082 133.571 193.446ZM120.139 171.469L120.412 182.133C121.665 182.816 123.112 183.158 124.753 183.158C126.325 183.158 127.658 182.566 128.752 181.381C129.846 180.196 130.393 178.749 130.393 177.04C130.393 175.194 129.823 173.531 128.684 172.05C127.544 170.569 126.12 169.828 124.411 169.828C123.021 169.828 121.597 170.375 120.139 171.469ZM150.798 191.361L151.14 192.899C150.251 192.899 148.633 192.934 146.286 193.002C143.962 193.093 142.276 193.139 141.228 193.139C139.541 193.139 138.391 193.059 137.775 192.899C138.003 190.393 138.14 186.2 138.186 180.321C138.231 174.442 138.379 170.341 138.63 168.017C139.405 168.085 141.455 168.142 144.782 168.188C148.132 168.233 150.319 168.336 151.345 168.495L151.721 170.033C150.695 170.215 148.645 170.432 145.568 170.683C142.492 170.933 140.874 171.07 140.715 171.093C140.738 171.617 140.783 172.688 140.852 174.306C140.943 175.924 141 177.257 141.022 178.305C141.797 178.396 143.21 178.533 145.261 178.715C147.312 178.874 148.61 178.977 149.157 179.022L149.499 180.595C144.691 181.028 141.877 181.256 141.057 181.278C141.057 182.281 141.034 183.808 140.988 185.858C140.965 187.886 140.954 189.379 140.954 190.336C146.172 190.814 149.453 191.156 150.798 191.361ZM53.8984 238.361L54.2402 239.899C53.3516 239.899 51.7337 239.934 49.3867 240.002C47.0625 240.093 45.3763 240.139 44.3281 240.139C42.6419 240.139 41.4912 240.059 40.876 239.899C41.1038 237.393 41.2406 233.2 41.2861 227.321C41.3317 221.442 41.4798 217.341 41.7305 215.017C42.5052 215.085 44.556 215.142 47.8828 215.188C51.2324 215.233 53.4199 215.336 54.4453 215.495L54.8213 217.033C53.7959 217.215 51.7451 217.432 48.6689 217.683C45.5928 217.933 43.9749 218.07 43.8154 218.093C43.8382 218.617 43.8838 219.688 43.9521 221.306C44.0433 222.924 44.1003 224.257 44.123 225.305C44.8978 225.396 46.3105 225.533 48.3613 225.715C50.4121 225.874 51.7109 225.977 52.2578 226.022L52.5996 227.595C47.7917 228.028 44.9775 228.256 44.1572 228.278C44.1572 229.281 44.1344 230.808 44.0889 232.858C44.0661 234.886 44.0547 236.379 44.0547 237.336C49.2728 237.814 52.554 238.156 53.8984 238.361ZM59.0254 215.393L61.0762 215.598C61.418 219.084 61.7484 226.262 62.0674 237.131C63.5941 237.04 65.5309 236.994 67.8779 236.994C70.2249 236.994 72.1048 236.96 73.5176 236.892C73.6543 237.279 73.7454 237.826 73.791 238.532C73.8594 239.239 73.9277 239.763 73.9961 240.104C71.0111 239.922 67.2057 239.831 62.5801 239.831H58.7861C58.9001 236.459 58.957 231.947 58.957 226.296C58.9798 220.645 59.0026 217.01 59.0254 215.393ZM73.0049 216.965L72.6631 215.427L85.7197 214.675C86.2894 214.698 86.7679 214.903 87.1553 215.29C87.5426 215.677 87.7363 216.099 87.7363 216.555C87.7363 216.851 87.6224 217.113 87.3945 217.341C87.1667 217.569 86.8249 217.705 86.3691 217.751L80.627 217.443C81.1966 225.487 81.6182 232.801 81.8916 239.387C81.6865 240.07 81.2992 240.412 80.7295 240.412C80.3193 240.412 79.9206 240.241 79.5332 239.899C79.1458 239.58 78.9066 239.182 78.8154 238.703C78.861 237.473 78.8838 235.604 78.8838 233.098C78.8838 232.163 78.8724 230.762 78.8496 228.894C78.8496 227.025 78.8496 225.624 78.8496 224.689C78.8496 221.978 78.8952 219.528 78.9863 217.341C76.4115 217.159 74.4176 217.033 73.0049 216.965ZM104.074 238.361L104.416 239.899C103.527 239.899 101.91 239.934 99.5625 240.002C97.2383 240.093 95.5521 240.139 94.5039 240.139C92.8177 240.139 91.667 240.059 91.0518 239.899C91.2796 237.393 91.4163 233.2 91.4619 227.321C91.5075 221.442 91.6556 217.341 91.9062 215.017C92.681 215.085 94.7318 215.142 98.0586 215.188C101.408 215.233 103.596 215.336 104.621 215.495L104.997 217.033C103.972 217.215 101.921 217.432 98.8447 217.683C95.7686 217.933 94.1507 218.07 93.9912 218.093C94.014 218.617 94.0596 219.688 94.1279 221.306C94.2191 222.924 94.276 224.257 94.2988 225.305C95.0736 225.396 96.4863 225.533 98.5371 225.715C100.588 225.874 101.887 225.977 102.434 226.022L102.775 227.595C97.9674 228.028 95.1533 228.256 94.333 228.278C94.333 229.281 94.3102 230.808 94.2646 232.858C94.2419 234.886 94.2305 236.379 94.2305 237.336C99.4486 237.814 102.73 238.156 104.074 238.361ZM124.821 240.446L125.368 241.848C124.343 241.825 123.272 241.494 122.155 240.856C121.039 240.218 119.991 239.421 119.011 238.464C118.054 237.484 117.188 236.504 116.413 235.524C115.661 234.522 115.012 233.542 114.465 232.585L111.765 232.277C111.81 233.941 111.901 236.527 112.038 240.036C111.833 240.743 111.434 241.096 110.842 241.096C110.432 241.096 110.033 240.925 109.646 240.583C109.281 240.264 109.053 239.865 108.962 239.387C109.03 237.473 109.099 233.747 109.167 228.21C109.258 222.673 109.372 218.389 109.509 215.358L111.047 214.948C111.047 215.677 111.058 216.088 111.081 216.179C112.38 215.313 114.203 214.88 116.55 214.88C119.079 214.88 120.97 215.677 122.224 217.272C123.477 218.845 124.104 221.055 124.104 223.903C124.104 224.951 123.978 225.965 123.728 226.945C123.477 227.902 123.101 228.802 122.6 229.646C122.121 230.489 121.449 231.184 120.583 231.73C119.717 232.277 118.726 232.596 117.609 232.688C118.407 234.351 119.478 235.969 120.822 237.541C122.167 239.113 123.5 240.082 124.821 240.446ZM111.389 218.469L111.662 229.133C112.915 229.816 114.362 230.158 116.003 230.158C117.575 230.158 118.908 229.566 120.002 228.381C121.096 227.196 121.643 225.749 121.643 224.04C121.643 222.194 121.073 220.531 119.934 219.05C118.794 217.569 117.37 216.828 115.661 216.828C114.271 216.828 112.847 217.375 111.389 218.469ZM129.025 238.942L129.47 215.29H131.315L142.492 236.516V233.815C142.492 226.934 142.618 220.747 142.868 215.256L144.816 215.632C145.067 220.576 145.272 228.723 145.432 240.07C144.953 240.275 144.452 240.378 143.928 240.378C143.153 240.378 142.344 240.15 141.501 239.694C140.111 237.552 138.379 234.419 136.306 230.295C134.255 226.171 132.797 223.345 131.931 221.818C131.953 223.368 131.965 226.193 131.965 230.295C131.988 234.396 132.033 237.507 132.102 239.626C131.896 240.332 131.498 240.686 130.905 240.686C130.495 240.686 130.096 240.515 129.709 240.173C129.344 239.831 129.117 239.421 129.025 238.942Z" fill="black"/>
<g opacity="0.649994">
<path d="M212.197 152.729C212.647 152.976 212.742 153.584 212.386 153.954C212.055 154.297 211.791 154.553 211.477 154.647C211.316 154.695 211.086 154.513 210.843 154.291C210.538 154.01 210.506 153.539 210.769 153.217C210.996 152.938 211.234 152.678 211.527 152.527C211.664 152.457 211.889 152.561 212.197 152.729Z" fill="black"/>
<path d="M214.255 235.099C214.01 234.924 213.951 234.581 214.126 234.336C214.452 233.878 214.675 233.503 214.876 233.514C216.117 233.585 215.989 234.745 216.234 235.563C216.247 235.608 216.239 235.659 216.218 235.714C216.096 236.029 215.686 236.118 215.41 235.922C215.056 235.67 214.685 235.405 214.255 235.099Z" fill="black"/>
<path d="M213.269 178.496L213.257 178.51C212.936 178.871 212.381 178.891 212.035 178.554L212.005 178.525C211.644 178.172 211.662 177.572 212.062 177.263C212.19 177.165 212.322 177.09 212.463 177.065C212.617 177.038 212.784 177.08 212.977 177.16C213.506 177.38 213.649 178.067 213.269 178.496Z" fill="black"/>
<path d="M214.388 199.912C214.669 200.132 214.69 200.551 214.432 200.798C214.092 201.123 213.849 201.366 213.766 201.32C213.431 201.134 213.137 200.877 212.847 200.61C212.587 200.37 212.597 199.955 212.868 199.728C213.075 199.556 213.282 199.413 213.491 199.411C213.755 199.407 214.022 199.626 214.388 199.912Z" fill="black"/>
<path d="M214.5 209.951C214.737 210.207 214.732 210.607 214.489 210.857C214.183 211.17 213.94 211.425 213.871 211.384C213.548 211.194 213.263 210.939 212.985 210.674C212.715 210.418 212.71 209.991 212.973 209.728C213.198 209.502 213.425 209.307 213.656 209.303C213.91 209.296 214.171 209.596 214.5 209.951Z" fill="black"/>
<path d="M213.517 221.471L214.04 221.301C214.382 221.189 214.748 221.387 214.843 221.734C214.986 222.256 215.136 222.785 214.95 222.963C213.89 223.974 213.077 222.163 213.077 222.163C213.039 221.857 213.223 221.567 213.517 221.471Z" fill="black"/>
<path d="M213.811 189.392C214.177 189.788 214.132 190.416 213.712 190.761C213.514 190.924 213.374 191.029 213.345 191.004C212.895 190.619 212.433 190.167 212.217 189.638C212.188 189.567 212.29 189.443 212.442 189.298C212.819 188.94 213.419 188.969 213.772 189.35L213.811 189.392Z" fill="black"/>
<path d="M213.376 168.069C213.236 168.197 213.113 168.309 213 168.413C212.795 168.6 212.477 168.578 212.298 168.366C212.024 168.042 211.751 167.716 211.59 167.343C211.523 167.186 212.231 166.47 212.306 166.512C212.661 166.709 212.971 166.988 213.369 167.341C213.586 167.533 213.59 167.874 213.376 168.069Z" fill="black"/>
<path d="M211.558 143.594C211.937 143.831 211.975 144.372 211.631 144.658C211.293 144.939 211.05 145.135 210.928 145.076C210.508 144.878 210.149 144.374 209.976 143.916C209.904 143.724 210.465 143.041 210.571 143.076C210.886 143.183 211.179 143.356 211.558 143.594Z" fill="black"/>
<path d="M236.945 248.69C236.693 250.364 236.463 252.231 236.123 254.079C235.139 259.436 234.088 264.781 233.112 270.14C232.726 272.254 232.462 274.391 232.153 276.52C232.044 277.263 231.742 277.736 230.888 277.731C223.314 277.678 189.58 278.981 187.102 280.033C182.948 269.494 180.985 258.407 178.146 247.356C180.199 247.616 181.836 247.971 183.479 248.001C187.164 248.067 190.852 247.994 194.538 247.934C196.269 247.906 198.065 248.046 199.711 247.63C201.727 247.122 203.64 246.164 205.549 245.295C206.483 244.871 207.279 244.15 208.201 243.69C208.467 243.557 209.101 243.736 209.311 243.986C210.389 245.269 211.862 245.606 213.384 245.948C214.664 246.235 215.89 246.769 217.172 247.04C220.081 247.653 222.99 248.438 225.937 248.66C229.549 248.933 233.199 248.703 236.945 248.69Z" fill="#080808"/>
<path d="M238.052 249.009C237.824 249.89 237.501 250.833 237.341 251.803C235.854 260.812 233.516 280.222 232.952 281.469C232.602 282.241 230.561 281.905 230.23 281.906C228.801 281.915 227.371 281.986 225.943 281.967C223.036 281.93 220.128 281.869 217.223 281.767C216.365 281.737 215.516 281.608 214.666 281.482C213.373 281.289 212.838 281.953 212.882 283.076C212.934 284.377 213.048 285.679 213.214 286.971C213.549 289.595 213.909 292.217 214.314 294.832C214.599 296.677 214.982 298.508 215.306 300.347C215.486 301.367 215.909 301.74 217.012 301.351C217.94 301.025 218.97 300.986 220.204 300.777C219.683 297.927 219.24 295.113 218.64 292.333C218.075 289.718 217.32 287.145 216.707 284.54C216.594 284.059 216.234 282.224 216.464 281.817C216.703 281.394 217.633 282.029 218.06 281.712C218.157 282.089 218.285 282.796 218.367 283.176C219.019 286.216 219.672 289.257 220.311 292.299C220.811 294.678 221.35 297.051 221.76 299.446C221.98 300.73 222.572 301.238 223.867 301.155C227.739 300.907 230.361 302.99 232.349 305.996C233.703 308.044 233.084 309.416 230.672 309.942C229.56 310.183 228.394 310.232 227.252 310.244C226.831 310.249 219.945 307.257 218.737 308.671C218.419 310.523 218.857 310.951 215.816 311.267C215.499 310.039 215.138 308.911 214.927 307.755C214.626 306.104 214.451 304.43 214.194 302.77C213.477 298.138 212.735 293.509 212.027 288.876C211.797 287.373 211.634 285.859 211.452 284.349C211.4 283.918 211.246 283.428 211.387 283.06C211.087 281.672 211.222 281.526 210.087 281.613C208.239 281.757 206.384 281.82 204.17 281.936C204.607 286.623 204.937 290.94 205.442 295.235C205.662 297.108 205.774 299.254 206.762 300.717C208.436 303.196 208.392 305.801 208.514 308.489C208.545 309.165 208.534 308.848 208.436 309.502C208.375 309.91 208.787 311.534 206.837 311.606C204.811 311.674 204.334 310.118 203.939 309.204C201.816 308.345 194.522 312.218 193.221 312.708C191.903 313.203 190.119 312.495 189.424 311.393C188.581 310.058 188.837 309.223 189.838 307.945C190.661 306.895 191.255 305.606 192.237 304.755C193.552 303.616 195.076 302.657 196.642 301.892C197.6 301.423 197.969 301.002 197.795 299.957C197.28 296.875 196.733 293.793 196.389 290.69C196.156 288.591 196.191 286.455 196.212 284.337C196.222 283.301 195.99 282.74 194.838 282.882C190.612 283.274 187.377 284.326 186.845 282.976C186.405 281.859 186.203 280.754 185.863 279.696C185.031 277.105 184.087 274.547 183.331 271.934C182.536 269.183 181.917 266.382 181.202 263.607C180.238 259.872 179.257 256.141 178.282 252.409C177.877 250.858 177.434 249.315 177.075 247.753C176.886 246.932 176.821 246.16 175.788 245.856C175.374 245.734 173.085 245.397 173.039 243.647C172.992 241.866 172.877 240.082 172.668 238.314C172.614 237.857 172.171 237.359 171.775 237.046C170.152 235.763 168.402 234.634 166.846 233.278C165.38 232 165.048 230.087 164.911 228.28C164.568 223.732 164.188 219.171 164.207 214.616C164.232 208.5 164.647 202.385 164.842 196.268C165.001 191.28 164.995 186.286 165.221 181.301C165.507 175.019 165.687 168.713 166.41 162.475C167.078 156.713 168.158 150.982 169.892 145.4C170.596 143.138 170.931 140.764 171.479 138.452C171.755 137.283 172.133 136.138 172.492 134.891C171.437 134.644 170.474 134.426 169.514 134.194C165.331 133.181 161.199 131.944 157.616 129.511C154.927 127.685 152.223 125.779 151.088 122.392C150.721 121.295 149.62 120.467 149.024 119.42C147.589 116.9 146.256 114.322 144.872 111.773C144.746 111.541 143.546 109.084 143.115 108.994C143.447 110.271 143.635 114.678 144.226 115.821C145.169 117.644 146.338 116.957 145.878 120.648C145.781 121.673 145.319 122.633 144.072 122.708C142.277 122.756 141.582 122.715 140.115 120.408C139.271 119.081 140.201 117.999 140.886 117.117C141.692 116.077 141.418 115.114 141.287 114.058C141.036 112.038 140.828 110.012 140.569 107.994C140.526 107.657 140.405 107.215 140.162 107.037C136.844 104.61 134.044 101.708 131.824 98.2385C131.078 97.0715 130.043 96.0695 129.416 94.8505C127.691 91.5015 125.78 88.1885 124.588 84.6445C123.77 82.2125 124.007 79.4195 123.815 76.7845C123.682 74.9655 123.694 73.1345 123.515 71.3215C123.257 68.7065 124.278 66.3585 124.957 63.9535C125.837 60.8345 128.034 58.9435 130.931 57.5205C135.211 55.4195 139.253 52.8345 143.537 50.7435C147.347 48.8835 151.251 47.1065 155.288 45.8505C160.338 44.2795 165.554 43.2285 170.72 42.0475C174.482 41.1875 178.269 40.4235 182.065 39.7235C184.798 39.2185 187.576 38.9595 190.313 38.4705C197.973 37.1055 205.723 37.3495 213.446 37.0855C215.488 37.0155 217.521 36.6675 219.563 36.6185C223.638 36.5225 227.717 36.5185 231.794 36.5255C234.702 36.5305 237.622 36.4655 240.514 36.7045C244.046 36.9975 247.568 37.4905 251.069 38.0525C254.749 38.6445 258.444 39.2465 262.046 40.1795C264.328 40.7705 266.48 41.9115 268.637 42.9205C271.568 44.2905 273.373 46.7535 274.892 49.5195C276.251 51.9945 277.627 54.4855 279.266 56.7755C281.417 59.7825 282.287 63.0375 281.952 66.7285C281.779 68.6355 281.749 70.5505 281.728 72.4655C281.706 74.4475 280.505 75.8265 279.484 77.3095C277.986 79.4855 276.505 81.6765 274.934 83.8005C273.104 86.2765 271.183 88.6855 269.304 91.1255C269.068 91.4325 268.791 91.7275 268.632 92.0725C267.638 94.2435 265.887 95.4705 263.682 96.1975C261.219 97.0095 259.694 99.1765 259.835 101.733C259.945 103.716 260.148 105.695 260.37 107.669C260.488 108.722 260.605 109.705 261.813 110.338C262.852 110.882 262.59 114.201 261.617 114.942C260.21 116.013 258.573 115.896 257.38 114.639C255.713 112.883 255.574 111.61 257.143 110.011C257.917 109.222 258.076 108.429 258.007 107.442C257.909 106.048 257.854 104.65 257.47 103.201C256.745 104.785 256.002 106.361 255.299 107.955C253.53 111.967 251.979 116.091 249.949 119.965C248.638 122.467 246.899 124.878 244.877 126.841C242.248 129.392 239.168 131.487 236.233 133.713C235.564 134.22 235.431 134.455 235.799 135.336C237.583 139.614 239.256 143.941 240.846 148.295C241.509 150.113 241.818 152.057 242.386 153.913C242.614 154.661 243.867 161.219 244.145 163.499C244.851 169.282 245.791 175.038 246.408 180.829C247.105 187.357 247.818 193.903 248.041 200.457C248.328 208.888 248.038 217.334 246.917 225.719C246.671 227.562 246.181 229.373 245.78 231.195C245.235 233.665 243.765 235.339 241.405 236.259C241.175 236.348 240.064 248.745 239.773 248.999C239.475 249.259 238.748 249.03 238.052 249.009ZM260.264 96.1135C261.17 95.6465 262.012 95.1195 262.922 94.7625C264.927 93.9745 266.624 92.9225 267.544 90.8235C267.937 89.9295 268.657 89.1735 269.257 88.3755C271.909 84.8465 274.587 81.3375 277.221 77.7955C277.932 76.8385 278.576 75.8335 279.162 74.7955C279.658 73.9175 280.191 72.9705 280.249 72.0305C280.402 69.5735 280.488 67.0615 280.141 64.6375C279.807 62.3005 279.556 59.9105 278.086 57.7845C276.137 54.9685 274.501 51.9305 272.813 48.9415C271.539 46.6845 269.706 45.0135 267.528 43.7385C264.931 42.2185 262.123 41.3175 259.088 40.9815C256.553 40.7005 254.056 40.0625 251.548 39.5565C249.347 39.1125 247.171 38.3715 244.953 38.2215C240.102 37.8935 235.231 37.8585 230.368 37.7015C227.816 37.6195 225.258 37.3715 222.715 37.4845C217.415 37.7185 212.125 38.1765 206.828 38.4765C203.225 38.6805 199.593 38.5675 196.014 38.9555C188.893 39.7285 181.804 40.7115 174.806 42.3565C166.615 44.2835 158.245 45.5215 150.447 48.8865C147.3 50.2445 144.184 51.6845 141.117 53.2125C138.049 54.7415 135.043 56.3985 132.041 58.0545C130.262 59.0355 128.324 59.8615 127.318 61.8135C125.988 64.3945 125.101 67.1365 125.064 70.0405C125.025 73.0775 125.203 76.1205 125.362 79.1575C125.464 81.0965 125.725 82.9755 126.462 84.8555C128.268 89.4585 130.341 93.8855 133.602 97.6375C135.669 100.015 137.898 102.253 140.109 104.5C140.334 104.73 141.302 104.645 141.306 104.617C141.447 103.633 142.029 102.647 143.269 101.271C143.54 101.074 148.106 95.6675 149.924 92.9385C151.076 91.2095 151.712 89.1415 152.634 87.2525C152.771 86.9715 153.316 86.6075 153.481 86.6855C153.79 86.8315 154.095 87.2465 154.164 87.5965C154.619 89.8925 154.988 92.2045 155.43 94.5025C155.678 95.7925 156.186 95.9715 157.307 95.2495C158.695 94.3555 160.066 93.4345 161.471 92.5675C163.688 91.2005 165.969 89.9345 168.145 88.5065C170.939 86.6735 173.645 84.7065 176.422 82.8465C176.758 82.6205 177.363 82.5505 177.726 82.6975C177.969 82.7965 178.139 83.4175 178.109 83.7855C177.969 85.5585 177.741 87.3225 177.564 89.0925C177.525 89.4885 177.564 89.8935 177.567 90.4415C178.685 90.0885 179.584 89.7905 180.49 89.5205C183.404 88.6535 186.421 88.0405 189.213 86.8815C193.617 85.0525 197.865 82.8515 202.194 80.8395C202.581 80.6605 203.224 80.5245 203.483 80.7195C203.746 80.9195 203.795 81.5675 203.738 81.9925C203.456 84.1365 203.095 86.2695 202.796 88.4105C202.747 88.7605 202.866 89.1335 202.933 89.7165C204.641 89.1355 206.133 88.5485 207.671 88.1225C212.154 86.8795 216.613 85.5965 220.728 83.3435C222.022 82.6355 223.37 82.0185 224.729 81.4425C225.117 81.2775 225.698 81.2645 226.055 81.4475C226.269 81.5585 226.325 82.1965 226.27 82.5705C226.118 83.5995 225.873 84.6155 225.66 85.6365C225.365 87.0495 225.065 88.4615 224.708 90.1605C228.248 88.7725 231.508 87.5895 234.69 86.2215C238.08 84.7645 241.387 83.1135 244.754 81.5985C245.197 81.4005 245.778 81.5095 246.296 81.4755C246.232 81.9525 246.277 82.4805 246.087 82.9015C244.56 86.2755 243.712 89.8215 243.271 93.7135C243.83 93.4295 244.265 93.1935 244.713 92.9865C246.325 92.2425 247.9 91.3925 249.566 90.7945C253.233 89.4785 257.119 88.6865 260.154 85.9625C260.44 85.7055 261.071 85.8315 261.543 85.7805C261.477 86.2335 261.557 86.7915 261.32 87.1205C260.217 88.6565 259.688 90.3555 259.598 91.9745C260.079 93.5035 259.938 94.8565 260.264 96.1135ZM176.388 84.4945C168.981 89.2795 161.97 94.0865 154.243 98.4325C153.771 95.5725 153.37 93.1485 152.97 90.7225C152.346 91.1065 152.003 91.5315 151.756 92.0075C150.126 95.1395 148.161 98.0495 145.657 100.533C143.661 102.514 143.856 105.097 144.318 107.229C144.831 109.591 146.482 111.724 147.73 113.903C149.408 116.833 151.18 119.709 152.903 122.613C153.19 123.097 153.342 123.692 153.714 124.089C155.863 126.379 158.172 128.518 161.079 129.796C165.234 131.621 169.63 132.518 174.101 133.33C180.397 134.472 186.636 134.268 192.906 133.622C197.038 133.196 201.152 133.157 205.261 133.691C211.64 134.519 218.045 135.028 224.472 134.849C227.05 134.777 229.659 134.32 232.171 133.702C235.534 132.875 238.185 130.714 240.837 128.554C244.979 125.181 248.009 121.035 250.104 116.163C251.717 112.413 253.422 108.699 254.904 104.898C256.252 101.441 258.472 98.2385 257.815 94.1495C257.567 92.6085 258.132 90.9355 258.359 89.0485C257.542 89.4065 256.975 89.6835 256.387 89.9085C254.978 90.4485 253.572 90.9985 252.142 91.4775C250.927 91.8855 249.598 92.0325 248.465 92.5915C246.524 93.5475 244.708 94.7545 242.814 95.8105C242.351 96.0685 241.791 96.1515 241.275 96.3145C241.189 95.6995 240.911 95.0375 241.049 94.4785C241.861 91.1965 242.774 87.9385 243.642 84.6695C243.71 84.4115 243.689 84.1295 243.73 83.5925C241.824 84.4555 240.141 85.2455 238.437 85.9855C235.094 87.4365 231.74 88.8615 228.388 90.2935C226.994 90.8885 225.613 91.5185 224.194 92.0505C222.897 92.5365 222.45 92.1395 222.711 90.8155C222.845 90.1345 223.072 89.4725 223.211 88.7925C223.549 87.1435 223.86 85.4895 224.182 83.8385C224.008 83.6985 223.975 83.6725 223.801 83.5325C222.555 84.0995 221.342 84.7585 220.058 85.2165C214.468 87.2105 208.864 89.1665 203.245 91.0755C202.566 91.3065 201.762 91.1715 201.016 91.2055C201.03 90.4505 200.974 89.6865 201.072 88.9425C201.34 86.9005 201.672 84.8675 201.962 82.9365C193.218 86.2915 184.591 89.6005 175.594 93.0525C175.87 90.0765 176.111 87.4725 176.388 84.4945ZM204.328 135.23C202.131 135.105 199.711 134.848 197.294 134.865C195.078 134.88 192.865 135.2 190.649 135.367C189.53 135.452 188.408 135.498 187.287 135.559C185.688 135.647 184.077 135.888 182.492 135.772C181.174 135.676 180.408 136.098 179.942 137.249C179.064 139.416 178.019 141.534 177.351 143.765C175.571 149.697 174.16 155.719 173.76 161.932C173.43 167.05 173.047 172.165 172.795 177.287C172.563 182.014 172.333 186.749 172.359 191.479C172.389 196.645 172.77 201.809 172.895 206.976C173.062 213.842 173.114 220.712 173.261 227.578C173.275 228.248 173.646 230.687 173.66 231.269C173.683 232.216 173.914 233.156 174.001 234.104C174.27 237.04 174.491 239.981 174.781 242.914C174.847 243.582 176.443 244.233 176.611 244.359C179.28 246.357 182.385 246.56 185.546 246.549C186.849 246.544 188.152 246.59 189.455 246.569C191.181 246.54 192.908 246.488 194.632 246.41C196.267 246.337 197.902 246.23 199.534 246.113C200.091 246.072 200.675 246.045 201.189 245.854C202.205 245.477 203.218 245.058 204.164 244.533C205.343 243.878 206.464 243.113 207.581 242.353C207.742 242.243 207.822 241.893 207.807 241.664C207.642 239.233 207.478 236.802 207.262 234.376C206.81 229.323 206.182 224.282 205.899 219.221C205.62 214.233 205.656 209.225 205.596 204.225C205.55 200.451 205.587 196.677 205.554 192.903C205.531 190.254 205.499 187.602 205.384 184.956C205.26 182.092 204.915 179.234 204.881 176.372C204.822 171.292 205.041 166.207 204.93 161.13C204.781 154.318 204.405 147.512 204.18 140.702C204.122 138.959 204.269 137.209 204.328 135.23ZM205.431 135.452C205.475 139.994 205.462 144.358 205.579 148.718C205.662 151.827 206.031 154.929 206.078 158.037C206.15 162.807 205.944 167.582 206.055 172.35C206.266 181.475 206.641 190.596 206.899 199.721C207.01 203.632 206.952 207.547 207.052 211.458C207.168 216.023 207.223 220.599 207.579 225.149C207.97 230.127 208.648 235.084 209.257 240.044C209.438 241.521 210.125 242.865 211.533 243.467C213.682 244.384 215.867 245.503 218.133 245.801C222.631 246.392 237.207 247.713 238.637 246.696C239.398 246.155 239.593 239.488 239.829 236.71C239.411 236.42 237.923 235.916 237.939 235.354C238.123 229.015 238.236 224.151 238.397 217.812C238.508 213.424 238.513 209.033 238.636 204.645C238.751 200.521 239.24 196.387 239.062 192.28C238.734 184.694 238.105 177.118 237.463 169.55C237.167 166.051 236.649 162.561 236.041 159.101C235.51 156.078 234.675 153.111 234.042 150.104C233.22 146.196 231.728 142.565 229.706 139.136C229.157 138.204 228.611 137.27 228.009 136.245C220.708 136.919 213.215 136.112 205.431 135.452ZM236.563 248.857C232.866 248.87 229.265 249.097 225.701 248.828C222.793 248.609 219.923 247.834 217.052 247.229C215.787 246.962 214.577 246.435 213.315 246.152C211.812 245.814 210.36 245.482 209.296 244.216C209.088 243.969 208.463 243.792 208.201 243.924C207.291 244.378 206.505 245.089 205.584 245.508C203.7 246.365 201.812 247.31 199.824 247.812C198.2 248.221 196.427 248.084 194.719 248.112C191.082 248.17 187.443 248.243 183.807 248.177C182.186 248.148 180.571 247.797 178.545 247.541C181.346 258.446 183.283 269.384 187.383 279.783C189.827 278.745 192.34 278.719 194.86 278.659C196.505 278.62 198.15 278.471 199.789 278.307C202.584 278.026 205.371 277.461 208.167 277.427C215.638 277.337 223.112 277.46 230.585 277.511C231.493 277.518 231.769 276.976 231.855 276.145C232.086 273.906 232.73 270.278 233.14 268.065C233.999 263.432 234.9 258.808 235.751 254.174C236.086 252.351 236.314 250.509 236.563 248.857ZM239.519 234.673C239.723 234.787 239.766 234.812 239.969 234.926C240.966 234.262 242.317 233.795 242.834 232.864C243.797 231.13 244.586 229.158 244.85 227.204C245.576 221.838 246.225 216.44 246.464 211.036C246.686 206.019 246.497 200.968 246.208 195.948C245.833 189.45 245.308 182.955 244.599 176.486C244.118 172.094 243.229 167.746 242.483 163.385C242.081 161.039 242.044 161.045 239.717 161.833C238.073 162.39 238.013 162.547 238.196 164.281C238.774 169.769 239.443 175.251 239.842 180.753C240.198 185.647 240.37 190.565 240.384 195.472C240.396 199.597 239.993 203.722 239.901 207.849C239.788 212.976 239.827 218.106 239.762 223.234C239.714 227.047 239.602 230.86 239.519 234.673ZM172.046 235.076C172.223 234.975 172.231 234.97 172.408 234.869C172.161 233.273 171.853 231.683 171.688 230.078C171.601 229.223 171.797 228.342 171.795 227.474C171.787 222.608 171.806 217.741 171.723 212.876C171.645 208.313 171.471 203.751 171.302 199.19C171.225 197.107 170.96 195.028 170.953 192.946C170.939 189.255 171 185.562 171.138 181.874C171.262 178.539 171.522 175.21 171.74 171.879C171.941 168.805 172.189 165.734 172.347 162.657C172.366 162.278 172.051 161.734 171.724 161.514C171.061 161.067 170.216 160.883 169.57 160.418C168.784 159.852 168.29 159.79 168.167 160.871C167.66 165.314 167.042 169.751 166.743 174.209C166.513 177.624 166.802 181.071 166.68 184.497C166.421 191.793 166.071 199.086 165.706 206.377C165.371 213.072 165.396 219.761 166.16 226.422C166.353 228.104 166.739 229.975 167.681 231.302C168.762 232.825 170.56 233.84 172.046 235.076ZM229.89 136.057C231.221 138.896 232.797 141.529 233.709 144.375C235.052 148.568 235.932 152.91 236.988 157.194C237.263 158.309 237.46 159.444 237.706 160.633C238.713 160.295 239.631 160.051 240.488 159.671C240.878 159.497 241.458 159.014 241.423 158.74C241.101 156.259 240.83 153.75 240.213 151.333C239.56 148.78 238.608 146.295 237.672 143.824C236.515 140.77 235.57 137.589 233.168 135.133C232.004 135.461 230.845 135.788 229.89 136.057ZM204.563 300.986C203.93 294.976 203.276 288.77 202.601 282.357C201.041 282.548 199.308 282.76 197.701 282.957C197.67 284.709 197.478 286.271 197.647 287.792C198.118 292.014 198.725 296.221 199.334 300.427C199.377 300.724 199.876 301.179 200.163 301.179C201.698 301.178 203.233 301.056 204.563 300.986ZM189.527 281.481C189.543 281.503 189.555 281.524 189.563 281.545C190.807 281.539 192.055 281.588 193.295 281.516C196.799 281.312 200.34 281.315 203.791 280.766C209.55 279.85 215.308 280.045 221.08 280.158C223.72 280.211 226.359 280.318 228.999 280.323C229.49 280.324 229.982 280.188 230.474 280.054C230.844 279.953 231.084 279.597 231.039 279.217L231.003 278.542C229.78 278.606 229.563 278.359 228.446 278.333C222.591 278.194 216.754 278.294 210.898 278.237C207.488 278.203 204.07 278.441 200.665 278.654C198.506 278.79 196.345 278.96 194.209 279.304C192.824 279.528 191.018 279.273 189.659 279.958C189.34 280.119 189.317 281.192 189.527 281.481Z" fill="black"/>
<path d="M229.89 136.058C230.846 135.788 232.004 135.461 233.168 135.133C235.57 137.589 236.515 140.771 237.672 143.825C238.609 146.296 239.561 148.781 240.213 151.334C240.831 153.75 241.102 156.259 241.423 158.741C241.459 159.015 240.878 159.498 240.488 159.671C239.631 160.052 238.713 160.296 237.707 160.634C237.46 159.445 237.263 158.31 236.988 157.195C235.932 152.911 235.053 148.569 233.709 144.376C232.798 141.53 231.221 138.897 229.89 136.058Z" fill="black"/>
<path d="M215.045 99.6511C215.078 99.2211 215.141 98.7911 215.14 98.3611C215.136 97.3371 215.536 96.6821 216.645 96.7081C218.193 96.7431 218.73 97.1151 218.597 98.4111C218.505 99.2971 218.068 100.206 217.576 100.968C217.338 101.336 216.4 101.696 216.157 101.524C215.593 101.127 215.26 100.404 214.833 99.8131C214.904 99.7591 214.974 99.7051 215.045 99.6511Z" fill="black"/>
<path d="M182.332 100.064C182.427 101.39 182.157 102.135 181.105 102.397C179.962 102.681 179.469 101.97 179.273 101.067C179.115 100.34 179.054 99.5266 179.226 98.8186C179.325 98.4116 179.957 97.9006 180.38 97.8696C180.828 97.8366 181.455 98.2126 181.748 98.6026C182.118 99.0956 182.228 99.7836 182.332 100.064Z" fill="black"/>
<path d="M199.357 111.134C199.125 111.5 198.731 111.612 198.375 111.363C197.984 111.092 197.759 111.048 197.862 110.548C198.022 109.769 198.551 109.398 199.134 109.302C199.892 109.179 200.009 109.862 199.964 109.995C199.839 110.364 199.63 110.705 199.357 111.134Z" fill="black"/>
<path d="M201.133 127.601C198.924 127.717 194.762 125.281 193.319 123.846C192.899 123.429 192.361 122.795 192.525 122.118C192.769 121.115 193.975 121.265 198.622 122.283C199.541 122.484 200.685 122.735 200.923 122.734C201.092 122.722 201.802 122.494 202.372 122.311C205.109 121.432 206.462 121.102 207.04 121.873C207.202 122.09 207.354 122.465 207.156 123.022C206.603 124.579 203.245 127.121 201.554 127.541C201.424 127.574 201.283 127.593 201.133 127.601ZM194.16 122.796C194.527 123.184 195.223 123.765 196.367 124.46C198.362 125.671 200.454 126.438 201.232 126.244C202.746 125.867 205.273 123.719 205.811 122.779C205.092 122.842 203.573 123.33 202.78 123.584C201.866 123.877 201.333 124.044 201.008 124.068C200.679 124.093 200.012 123.956 198.336 123.589C197.168 123.332 195.214 122.905 194.16 122.796Z" fill="black"/>
<path d="M183.589 39.7861C183.381 37.3931 185.21 35.0151 188.739 33.0911C192.101 31.2571 196.658 30.0131 201.572 29.5861C206.486 29.1601 211.191 29.5991 214.817 30.8261C218.625 32.1131 220.837 34.1401 221.045 36.5331L219.713 36.6481C219.556 34.8441 217.616 33.1821 214.389 32.0921C210.933 30.9241 206.422 30.5061 201.688 30.9181C196.953 31.3291 192.582 32.5171 189.38 34.2641C186.389 35.8951 184.764 37.8651 184.921 39.6701L183.589 39.7861Z" fill="#080808"/>
<path d="M190.776 32.6348C188.833 31.2198 187.752 29.4578 187.652 27.5408C187.399 22.7168 193.681 18.4518 201.655 18.0338C209.63 17.6158 216.323 21.2008 216.576 26.0248C216.674 27.8968 215.824 29.7248 214.118 31.3108L213.208 30.3318C214.614 29.0238 215.317 27.5588 215.241 26.0948C215.026 22.0068 208.963 18.9888 201.725 19.3688C194.487 19.7478 188.773 23.3828 188.987 27.4708C189.066 28.9718 189.956 30.3848 191.563 31.5538L190.776 32.6348Z" fill="#080808"/>
<path d="M173.424 115.335C173.619 117.574 172.732 118.856 169.466 119.377C165.917 119.942 164.447 118.774 163.908 117.259C163.475 116.039 163.345 114.665 163.928 113.454C164.264 112.756 166.25 111.844 167.559 111.761C168.945 111.673 170.853 112.264 171.727 112.903C172.833 113.711 173.126 114.868 173.424 115.335Z" fill="black"/>
<path d="M228.011 113.144C228.051 115.391 229.067 116.573 232.37 116.749C235.958 116.941 237.298 115.625 237.676 114.062C237.979 112.804 237.965 111.424 237.258 110.28C236.852 109.622 234.78 108.922 233.47 108.976C232.083 109.034 230.247 109.821 229.444 110.548C228.429 111.467 228.259 112.648 228.011 113.144Z" fill="black"/>
</g>
<path d="M348.191 262.171C347.787 266.13 347.408 270.287 346.925 274.432C346.518 277.932 346.42 281.542 345.425 284.885C343.548 291.197 343.248 297.742 341.86 304.097C340.907 308.459 339.235 312.688 337.652 316.893C336.676 319.485 335.192 321.891 334.065 324.435C332.199 328.645 330.554 332.951 328.596 337.118C326.889 340.752 326.217 344.616 325.323 348.45C325.131 349.275 324.444 350.019 323.885 350.724C322.584 352.364 322.811 353.226 324.734 354.078C325.914 354.601 327.091 355.175 328.156 355.888C330.353 357.357 330.533 359.707 330.575 361.977C330.596 363.147 328.45 364.342 327.155 363.911C324.762 363.114 322.413 362.184 320.077 361.236C319.183 360.874 318.356 360.337 317.531 359.83C314.209 357.786 314.972 357.037 315.501 353.948C315.689 352.844 315.816 351.729 316.055 350.637C316.455 348.816 316.98 347.019 317.337 345.191C317.49 344.411 317.367 343.576 317.345 342.768C317.335 342.42 317.165 342.053 317.235 341.731C319.034 333.461 319.025 325.008 319.863 316.642C320.215 313.123 320.978 309.646 321.392 306.131C321.664 303.833 321.437 301.469 321.797 299.19C322.721 293.334 321.948 287.501 321.815 281.653C321.697 276.463 320.333 271.587 318.274 266.866C317.133 264.252 315.137 262.212 312.748 260.65C311.412 259.777 309.932 259.54 308.158 260.228C304.278 261.731 302.057 264.443 300.687 268.142C299.53 271.266 298.106 274.296 296.803 277.367C295.479 280.488 293.865 283.527 292.921 286.755C292.004 289.888 291.669 293.202 291.266 296.459C290.391 303.535 289.328 310.607 288.915 317.714C288.475 325.265 288.699 332.855 288.63 340.428C288.624 341.136 288.494 341.858 288.599 342.548C288.717 343.331 288.343 344.467 289.816 344.578C289.961 344.588 290.215 345.416 290.115 345.785C290.01 346.176 289.607 346.611 289.219 346.785C288.209 347.239 287.165 347.524 287.573 349.008C287.842 349.988 287.712 351.105 288.118 352.008C288.996 353.959 288.716 356.6 286.935 357.824C286.173 358.347 284.83 358.441 283.863 358.23C282.101 357.847 280.529 358.091 278.857 358.584C277.953 358.85 276.863 358.744 275.904 358.565C274.482 358.3 273.023 357.98 271.735 357.371C270.964 357.007 270.243 356.125 269.978 355.326C269.83 354.879 270.567 354.044 271.065 353.53C273.251 351.276 276.218 350.713 279.335 350.22C279.23 349.338 279.136 348.555 279.046 347.798C276.502 347.405 276.236 347.199 275.935 344.585C275.353 339.531 274.85 334.468 274.316 329.409C273.871 325.188 273.353 320.973 273.012 316.745C272.747 313.47 272.698 310.18 272.564 306.897C272.334 301.288 272.05 295.679 271.913 290.067C271.842 287.191 272.003 284.308 272.121 281.431C272.364 275.525 272.542 269.613 272.948 263.718C273.287 258.79 272.974 253.79 274.449 248.964C274.708 248.115 274.374 247.075 274.693 246.267C275.094 245.251 275.891 244.385 276.507 243.448C276.759 243.066 277.171 242.679 277.197 242.274C277.384 239.348 277.559 236.417 277.565 233.486C277.567 232.882 276.942 232.173 276.427 231.696C275.853 231.166 271.717 227.001 271.004 224.924C270.635 223.847 270.134 222.791 269.936 221.685C269.6 219.813 269.188 217.896 269.285 216.023C269.557 210.775 270.026 205.536 270.506 200.302C270.94 195.57 271.499 190.85 271.987 186.122C272.913 177.138 273.753 168.144 274.78 159.17C275.273 154.858 276.146 150.591 276.777 146.294C277.468 141.588 278.131 136.876 278.664 132.151C278.741 131.47 278.223 130.405 277.635 130.021C274.646 128.068 273.029 125.009 270.859 122.402C270.079 121.464 269.245 120.495 268.771 119.402C267.554 116.595 266.524 113.712 265.329 110.627C263.244 110.757 260.789 110.952 258.33 111.051C256.724 111.116 255.759 109.857 256.111 108.338C256.163 108.111 256.095 107.844 256.039 107.607C255.382 104.809 254.726 102.01 254.05 99.2165C253.443 96.7115 252.738 94.2265 252.207 91.7075C251.454 88.1405 252.166 87.1155 255.813 86.4575C256.772 86.2835 257.197 85.9715 257.063 85.0005C256.801 83.0975 256.513 81.1945 256.36 79.2825C256.114 76.2185 255.808 73.1455 255.825 70.0785C255.843 66.5985 255.964 63.0895 256.455 59.6505C256.944 56.2195 257.509 53.6995 258.061 50.2835C258.969 44.6515 261.74 42.5355 264.062 39.6295C265.639 37.6545 268.105 36.1495 270.47 35.0205C274.559 33.0665 278.832 31.4465 283.12 29.9295C285.238 29.1805 295.767 26.5825 298.001 26.1465C302.427 25.2805 311.631 24.5795 316.86 24.2745C319.168 24.1405 334.017 25.4175 337.108 25.9645C339.083 26.3145 341.11 26.9305 342.955 27.6185C346.39 28.8995 349.727 30.4565 353.026 32.0535C354.108 32.5785 355.034 33.5045 355.873 34.3905C357.436 36.0405 359.229 37.6145 360.305 39.5465C362.299 43.1285 363.645 47.0485 365.635 50.6315C367.671 54.2955 368.108 58.3225 369.148 62.2135C369.522 63.6155 369.613 65.0955 369.756 66.5475C370.12 70.2715 370.476 73.9975 370.759 77.7275C370.849 78.9195 370.731 80.1295 370.653 81.3295C370.424 84.8555 370.166 88.3795 369.927 91.8025C371.317 92.5885 372.583 93.2455 373.765 94.0235C374.008 94.1835 374.094 94.8465 373.985 95.1985C372.882 98.7665 371.734 102.32 370.576 105.872C369.793 108.275 368.953 110.663 368.181 113.07C367.726 114.493 367.217 115.456 365.274 114.892C363.501 114.378 361.582 114.359 359.736 114.072C359.038 113.964 358.363 113.715 357.326 113.435C356.493 116.718 355.88 120.207 354.697 123.498C353.523 126.764 351.775 129.833 350.233 133.084C347.022 133.693 345.449 135.852 345.964 139.163C347.174 146.951 348.421 154.733 349.583 162.526C350.822 170.834 351.985 179.153 353.171 187.468C353.296 188.341 359.058 193.783 360.603 195.614C360.8 195.847 368.718 206.15 370.608 209.117C371.421 210.393 375.052 217.404 376.288 218.907C378.283 221.334 379.734 223.964 380.931 226.793C381.56 228.279 382.319 229.713 383.011 231.176C383.651 232.532 382.858 234.501 381.604 235.444C380.105 236.57 378.905 238.095 377.348 239.121C372.74 242.16 368.838 245.982 364.749 249.593C362.155 251.884 359.912 254.579 357.185 256.694C354.986 258.4 353.442 261.042 350.362 261.609C349.772 261.718 349.199 261.907 348.191 262.171ZM350.172 64.5215C347.812 65.5285 345.451 66.5365 343.091 67.5445C343.212 67.7675 343.334 67.9905 343.455 68.2135C345.683 66.9735 347.91 65.7335 350.144 64.4985C351.523 64.5945 352.902 64.6915 354.28 64.7875C354.282 64.5345 354.284 64.2825 354.286 64.0295C352.902 63.7735 351.533 63.9875 350.172 64.5215ZM327.2 60.0295C330.23 59.0635 333.26 58.0975 336.29 57.1305C336.233 56.9715 336.177 56.8125 336.12 56.6535C333.274 57.5885 330.425 58.5165 327.587 59.4785C327.419 59.5355 327.348 59.8615 327.222 60.0525C325.45 60.5175 323.677 60.9815 321.905 61.4465C321.997 61.6945 322.088 61.9425 322.18 62.1915C323.853 61.4705 325.526 60.7505 327.2 60.0295ZM291.297 128.41C290.572 130.505 292.354 134.383 294.256 134.525C292.766 132.998 291.686 131.403 292.015 129.245C292.049 129.022 291.516 128.714 291.246 128.446C290.902 127.141 290.531 125.841 290.218 124.529C289.504 121.53 288.498 118.523 290.268 115.544C290.489 115.172 290.704 114.798 290.921 114.426C291.001 115.896 290.605 117.199 290.522 118.523C290.438 119.874 290.556 121.26 290.78 122.601C290.992 123.871 291.457 125.102 291.81 126.35C291.913 126.32 292.015 126.29 292.118 126.261C292.119 123.603 292.12 120.945 292.121 117.577C293.384 119.252 293.853 117.974 294.489 117.724C294.889 121.172 295.279 124.534 295.668 127.895C295.86 127.885 296.051 127.876 296.243 127.866C296.286 127.254 296.399 126.639 296.36 126.032C296.171 123.112 295.933 120.195 295.744 117.275C295.726 117.006 295.933 116.724 296.036 116.448C296.309 118.003 296.246 119.515 296.474 120.986C296.687 122.363 296.265 123.905 297.481 125.106C297.612 123.523 297.479 121.973 297.327 120.423C297.011 117.214 297.106 116.466 298.026 115.91C298.06 120.076 297.627 124.267 299.816 128.171C298.635 130.318 300.355 132.125 301.065 134.067C301.226 134.51 301.958 134.757 302.766 135.337C302.388 132.629 301.329 130.556 301.731 128.3C302.379 129.534 302.65 130.845 303.107 132.092C303.551 133.302 303.859 134.687 305.53 135.348C305.336 133.342 303.779 131.749 304.722 129.827C305.066 130.218 305.159 130.661 305.302 131.088C305.86 132.758 306.391 134.439 307.033 136.079C307.181 136.456 307.73 136.685 308.095 136.983C307.598 134.328 306.066 132.067 306.95 129.398C307.308 130.058 307.322 130.791 307.527 131.469C308.005 133.054 308.484 134.65 309.158 136.16C309.382 136.662 310.202 136.915 310.75 137.281C310.84 137.162 310.931 137.043 311.021 136.924C310.654 136.094 310.202 135.288 309.944 134.427C309.684 133.563 309.56 132.647 309.495 131.746C309.47 131.409 309.781 131.051 309.939 130.702C310.105 131.023 310.351 131.328 310.423 131.668C310.659 132.796 310.66 134 311.067 135.06C311.855 137.109 314.012 138.102 316.043 137.214C314.144 137.513 313.484 136.502 313.045 135.354C312.559 134.084 312.258 132.763 313.022 131.439C313.729 133.04 312.973 135.215 315.046 136.201C315.152 135.592 315.014 135.058 314.983 134.519C314.954 134.019 315.039 133.513 315.075 133.01C315.219 133.013 315.616 132.911 315.76 132.915C315.938 133.925 315.81 135.053 316.056 136.048C316.345 137.212 317.11 137.579 318.47 137.325C316.962 134.639 316.616 132.693 317.56 131.345C317.769 132.448 317.837 133.447 318.167 134.358C318.464 135.177 319.048 135.899 319.505 136.664C319.65 136.619 319.794 136.574 319.939 136.528C319.817 136.817 319.696 137.107 319.509 137.552C320.082 137.531 320.508 137.516 320.964 137.499C319.345 131.06 319.345 131.06 320.427 130.349C320.632 131.922 320.76 133.456 321.047 134.961C321.442 137.033 321.909 137.354 324.372 137.502C324.108 136.842 323.794 136.261 323.644 135.643C323.251 134.034 322.886 132.416 322.614 130.786C322.553 130.419 322.916 129.986 323.084 129.585L323.6 129.705C323.556 132.079 323.397 134.482 325.392 136.388C325.445 135.358 325.176 134.358 325.133 133.349C325.087 132.279 325.256 131.202 325.331 130.128C325.507 130.132 325.682 130.136 325.858 130.141C325.907 130.558 325.956 130.975 326.003 131.393C326.162 132.789 326.231 134.202 326.501 135.578C326.85 137.355 327.422 137.635 329.468 137.216C328.761 135.143 327.381 133.126 328.582 130.814C329.282 133.111 328.613 135.958 331.805 137.463C331.101 133.064 330.573 128.901 328.253 125.16C326.835 126.198 326.724 124.734 326.356 123.859C324.488 124.525 322.973 123.654 322.758 121.896C322.702 121.445 322.57 120.992 322.587 120.545C322.632 119.363 322.739 118.184 322.822 117.004C323.005 117.004 323.188 117.004 323.372 117.004C323.464 118.568 323.555 120.132 323.647 121.696C323.784 121.7 323.921 121.704 324.058 121.708C324.714 120.319 323.54 118.435 325.156 117.218C326.278 119.025 324.226 121.118 325.895 122.814C326.22 121.788 326.224 120.751 326.384 119.738C326.535 118.781 326.852 117.849 327.095 116.905C327.261 116.937 327.427 116.969 327.593 117.001C327.732 117.387 327.871 117.772 328.012 118.166C328.417 117.926 328.724 117.745 329.246 117.436C329.023 118.677 328.848 119.654 328.673 120.63C329.322 118.987 329.372 118.966 331.425 119.551C331.721 118.726 332.016 117.905 332.31 117.085C332.469 117.124 332.629 117.164 332.788 117.203C332.757 119.696 332.727 122.191 332.696 124.684C334.862 121.497 332.684 117.805 334.371 114.221C335.151 116.27 333.341 118.345 334.964 119.579C335.167 121.321 335.341 122.812 335.516 124.302C335.698 124.287 335.88 124.272 336.061 124.257C336.395 121.037 335.497 117.754 336.182 114.551C336.389 114.549 336.595 114.547 336.802 114.545C336.79 116.171 336.778 117.797 336.767 119.356C338.132 119.759 338.316 119.099 338.231 118.206C338.058 116.392 337.834 114.583 337.705 112.766C337.668 112.242 337.883 111.701 337.982 111.168C338.153 111.18 338.325 111.192 338.496 111.203C338.593 112.925 338.691 114.647 338.788 116.364C339.27 116.493 339.678 116.603 340.191 116.74C339.858 117.708 339.356 118.551 339.332 119.409C339.306 120.311 339.738 121.227 339.971 122.136C340.166 122.136 340.361 122.135 340.556 122.135C340.792 118.769 341.027 115.403 341.262 112.037C341.424 112.05 341.586 112.063 341.748 112.076C341.873 113.782 342.153 115.493 342.084 117.191C342.008 119.083 342.38 120.812 343.171 122.921C343.836 119.695 342.726 116.735 343.951 113.735C345.636 115.296 343.916 116.638 344.271 117.965C344.629 119.299 344.717 120.7 344.923 122.072C345.094 122.052 345.266 122.032 345.438 122.012C345.453 121.213 345.381 120.4 345.502 119.616C345.845 117.396 345.153 114.945 347.159 113.082C347.925 112.371 348.343 111.315 349.07 110.55C349.273 110.336 350.009 110.602 350.48 110.646C350.013 111.574 349.508 112.129 349.49 112.7C349.446 114.135 349.554 115.586 349.722 117.017C350.001 119.376 349.297 121.982 351.593 123.886C351.826 124.08 351.407 125.073 351.209 125.67C351.161 125.817 350.645 125.987 350.592 125.93C350.301 125.614 349.967 125.26 349.868 124.867C349.516 123.469 349.253 122.051 348.922 120.471C347.942 122.998 348.636 126.109 350.094 127.376C349.79 128.441 349.535 129.335 349.28 130.23C349.549 130.306 349.818 130.382 350.088 130.458C350.223 127.848 353.762 126.468 352.017 122.984C351.023 120.997 351.178 118.455 350.888 116.155C350.744 115.01 350.25 113.758 351.666 112.89C351.912 112.74 351.742 112.022 351.866 111.595C352.125 110.702 352.368 109.789 352.774 108.957C353.3 107.878 354.204 106.934 354.538 105.815C354.967 104.382 354.542 102.559 355.289 101.395C356.538 99.4465 356.093 97.4965 356.122 95.5355C356.149 93.6905 355.616 91.8415 356.526 90.0295C356.763 89.5585 356.589 88.8175 356.431 88.2445C356.042 86.8325 355.473 85.4635 355.131 84.0435C354.877 82.9845 354.332 82.7005 353.363 83.0265C351.022 83.8155 348.706 84.6775 346.349 85.4195C340.942 87.1215 335.883 89.5185 331.032 92.3725C330.137 92.8995 329.092 93.5055 328.001 92.2315C328.639 90.7345 329.198 89.1485 329.977 87.6725C330.847 86.0235 332.351 84.3135 333.498 82.9455C334.98 81.1805 335.491 79.9145 336.143 78.0015C335.484 78.9715 331.176 79.6915 329.621 80.2015C323.718 82.1375 317.552 83.3375 311.978 86.2135C311.191 86.6205 296.468 93.5515 296.182 93.8175C296.127 93.8695 295.622 93.6445 295.613 93.5265C295.579 93.0995 295.543 92.5955 295.74 92.2455C296.005 91.7745 300.146 85.1645 302.031 82.3395C302.532 81.5885 303.381 80.9455 303.711 80.0865C303.564 79.9665 303.417 79.8485 303.27 79.7295C300.048 80.8955 281.282 86.0145 274.226 90.4815C274.113 90.3205 274 90.1605 273.887 89.9995C276.334 85.3685 278.78 80.7365 281.353 75.8665C277.85 76.1655 274.892 77.0105 272.571 79.1925C270.651 80.9965 268.694 82.8275 268.163 85.6085C267.967 86.6335 267.414 87.5935 266.989 88.6685C268.111 88.9135 268.252 89.6245 268.056 90.7545C267.536 93.7455 267.196 96.7665 266.737 100.125C267.512 99.7445 267.784 99.6115 268.096 99.4595C268.543 103.452 268.612 103.618 269.512 103.98C270.524 107.492 270.446 111.076 272.786 114.176C273.174 113.449 273.475 112.884 273.899 112.089C274.313 113.895 274.65 115.366 274.988 116.837C275.135 116.812 275.282 116.787 275.429 116.761C275.387 115.459 274.718 114.107 275.531 112.655C276.264 116.515 276.953 120.14 277.641 123.766C277.813 123.744 277.985 123.723 278.158 123.702C278.311 122.882 278.661 122.045 278.582 121.246C278.334 118.753 277.885 116.278 277.611 113.786C277.553 113.267 277.908 112.706 278.044 112.26C278.882 112.592 279.501 112.838 280.121 113.084C279.979 113.091 279.838 113.099 279.697 113.107C279.842 115.351 279.988 117.594 280.133 119.838C280.298 119.838 280.463 119.837 280.628 119.836C281.258 117.391 281.887 114.945 282.517 112.5C282.995 113.687 283.26 114.819 283.387 115.966C283.514 117.099 283.501 118.246 283.549 119.387C283.683 119.379 283.816 119.372 283.95 119.364C284.357 117.639 284.764 115.914 285.171 114.189C286.147 115.89 286.727 116.144 289.132 115.83C289.152 116.018 289.263 116.279 289.178 116.378C287.907 117.827 288.075 119.598 288.082 121.295C288.094 124.091 288.745 126.668 291.297 128.41ZM322.765 345.564C322.947 345.479 323.13 345.393 323.313 345.308C323.372 345.17 323.439 345.035 323.49 344.894C325.155 340.298 326.621 335.621 328.533 331.125C331.046 325.216 334.032 319.499 336.58 313.602C338.118 310.045 339.48 306.408 339.978 302.49C340.57 297.835 341.409 293.207 342.295 288.596C342.703 286.476 343.655 284.457 344.041 282.335C344.51 279.754 344.65 277.114 344.918 274.498C345.282 270.943 345.604 267.384 345.998 263.834C346.264 261.435 346.666 259.05 346.924 256.65C347.133 254.704 347.144 252.735 347.383 250.794C347.574 249.242 347.144 248.13 345.653 247.441C343.926 246.643 342.28 245.619 340.481 245.039C338.312 244.338 336.042 243.791 333.776 243.554C330.283 243.191 326.736 243.323 323.248 242.928C317.793 242.311 312.362 241.632 306.851 241.878C303.546 242.025 300.227 241.892 296.92 242.011C292.642 242.165 288.368 242.451 284.091 242.667C282.348 242.755 280.692 243.041 279.31 244.204C279.026 244.443 278.55 244.457 278.233 244.673C277.696 245.039 276.833 245.433 276.769 245.903C276.109 250.746 275.515 255.601 275.045 260.466C274.798 263.025 274.849 265.611 274.731 268.183C274.505 273.123 274.141 278.059 274.048 283.002C273.96 287.642 274.126 292.289 274.222 296.931C274.316 301.47 274.27 306.021 274.627 310.543C275.424 320.663 276.424 330.769 277.372 340.879C277.463 341.851 277.771 342.805 278.037 344.043C278.594 343.261 278.951 342.76 279.308 342.258C279.469 342.302 279.63 342.345 279.791 342.388C279.758 342.86 279.624 343.353 279.72 343.799C279.818 344.254 280.133 345.026 280.369 345.033C282.167 345.084 283.973 345.031 285.763 344.875C286.043 344.85 286.459 344.143 286.463 343.746C286.474 342.69 286.192 341.629 286.21 340.574C286.288 336.104 286.381 331.632 286.568 327.165C286.829 320.917 287.061 314.664 287.533 308.429C287.867 304.014 288.408 299.6 289.166 295.236C289.845 291.328 289.987 287.287 291.807 283.605C292.702 281.794 293.414 279.895 294.171 278.021C295.287 275.255 296.277 272.438 297.491 269.715C298.603 267.223 300.059 264.875 301.136 262.37C301.859 260.688 303.055 259.669 304.647 258.933C305.022 258.759 305.422 258.628 305.77 258.415C308.695 256.63 311.666 257.09 314.149 258.956C319.44 262.933 321.848 268.4 323.055 274.478C323.613 277.291 323.693 280.199 323.876 283.07C324.12 286.891 324.553 290.733 324.361 294.537C324.076 300.176 323.299 305.789 322.759 311.416C322.19 317.359 321.633 323.305 321.111 329.253C320.89 331.773 320.663 334.301 320.654 336.827C320.649 338.131 321.097 339.422 319.995 340.529C319.846 340.68 319.836 341.146 319.962 341.344C320.867 342.768 321.824 344.161 322.765 345.564ZM283.829 143.827C283.133 149.246 282.39 154.384 281.836 159.544C281.346 164.109 281.005 168.694 280.709 173.278C280.379 178.379 280.062 183.486 279.972 188.595C279.937 190.53 279.218 192.883 281.748 194.162C281.979 194.279 285.508 200.106 287.374 202.53C291.82 208.304 296.444 213.948 300.902 219.713C302.708 222.048 304.152 224.65 305.979 226.966C307.351 228.707 311.226 232.779 311.598 233.214C312.029 233.719 312.507 234.495 313.04 234.561C317.675 235.129 322.34 235.477 326.973 236.065C331.899 236.689 336.814 237.433 341.708 238.27C343.622 238.597 345.467 239.318 347.766 239.982C347.928 231.802 348.087 223.806 348.235 216.369C324.969 193.24 303.137 169.717 283.829 143.827ZM347.582 204.08C347.518 201.834 347.531 199.981 347.399 198.137C347.132 194.416 346.767 190.701 346.479 186.981C345.938 179.973 345.462 172.961 344.881 165.957C344.543 161.883 344.174 157.805 343.604 153.757C342.913 148.858 341.993 143.987 341.18 139.104C340.998 138.016 340.511 137.6 339.27 137.782C337.588 138.029 335.86 137.976 334.155 138.094C333.24 138.158 332.331 138.313 331.34 138.437C331.386 138.796 331.422 139.037 331.446 139.277C331.664 141.382 332.349 143.565 332.006 145.578C331.098 150.905 329.132 155.631 323.679 158.401C320.288 160.123 317.043 161.855 313.11 161.924C311.843 161.946 310.58 162.168 309.063 162.324C309.561 163.057 309.882 163.629 310.297 164.126C312.845 167.173 315.325 170.28 317.997 173.223C322.424 178.099 326.926 182.915 331.509 187.653C333.202 189.404 335.376 190.72 337.039 192.492C340.118 195.774 342.975 199.251 345.943 202.631C346.329 203.07 346.826 203.418 347.582 204.08ZM266.929 50.1745C268.462 48.8275 270.074 47.5665 271.638 46.2525C272.42 45.5945 273.11 44.8165 273.952 44.2495C274.753 43.7105 275.703 43.3805 276.582 42.9485C279.995 41.2735 283.191 39.1085 287.108 38.5685C288.49 38.3785 289.878 38.2125 291.251 37.9705C294.604 37.3785 297.93 36.3715 301.304 36.2125C307.814 35.9055 314.349 36.0125 320.873 36.0655C323.608 36.0875 326.356 36.2965 329.071 36.6295C331.224 36.8935 333.321 37.5735 335.47 37.8945C339.095 38.4375 342.508 39.5625 345.776 41.1495C346.376 41.4415 346.916 41.8515 347.491 42.1955C353.855 46.0115 357.77 51.4815 359.237 58.6095C359.288 58.8555 359.378 59.0935 359.465 59.3305C360.271 61.5365 361.253 63.6995 361.843 65.9585C362.53 68.5845 362.874 71.2945 363.369 73.9675C363.671 75.6005 364.131 77.2245 364.225 78.8665C364.505 79.8455 364.822 82.2625 364.815 82.4645C364.781 83.3715 364.757 84.2785 364.703 85.1835C364.62 86.5485 364.565 88.6155 364.467 90.0175C366.194 90.3205 366.012 90.2465 366.232 87.6515C366.687 82.2155 367.388 76.7655 366.425 71.3265C365.73 67.4075 364.876 63.5055 363.867 59.6515C363.178 57.0215 362.093 54.4885 361.197 51.9075C360.299 49.3255 359.654 46.6295 358.459 44.1855C357.316 41.8445 355.795 39.6755 353.458 38.1075C351.119 36.5365 349.193 34.3255 346.751 32.9715C343.883 31.3815 340.663 30.3925 337.577 29.1885C336.568 28.7945 322.522 27.6065 316.55 27.5145C307.823 27.3805 299.246 28.6205 290.838 30.8045C286.291 31.9845 281.462 33.4585 277.056 35.0705C272.876 36.6015 269.23 38.5805 266.205 41.6875C264.029 43.9215 262.692 47.0105 261.313 49.8715C260.604 51.3435 259.092 61.4215 258.858 64.7695C258.725 66.6735 258.685 74.0885 258.914 77.5595C259.03 79.3275 259.319 81.0855 259.53 82.8475C259.68 82.8405 259.829 82.8325 259.979 82.8255C259.993 80.6095 259.963 78.3935 260.03 76.1795C260.134 72.6965 260.063 69.1855 260.511 65.7425C261.015 61.8655 261.541 57.9235 263.803 54.4315C263.441 54.4065 265.523 51.4115 266.929 50.1745ZM277.321 229.483C277.527 229.098 278.183 216.058 278.237 212.031C278.335 204.817 278.31 197.601 278.431 190.388C278.505 185.992 278.7 181.596 278.944 177.206C279.209 172.426 279.507 167.644 279.949 162.878C280.434 157.645 281.09 152.428 281.689 147.207C282.22 142.58 281.554 137.835 283.117 133.412C282.239 132.838 281.436 132.314 280.315 131.583C280.614 133.064 279.874 137.105 279.693 138.086C279.269 140.37 278.97 142.677 278.614 144.974C277.668 151.069 276.585 157.149 275.808 163.265C275.108 168.78 274.735 174.336 274.231 179.876C273.159 191.662 272.087 203.448 271.041 215.237C270.943 216.337 270.606 218.352 270.911 219.375C272.394 224.947 274.649 227.796 277.321 229.483ZM343.918 137.048C342.563 137.441 342.514 137.586 342.803 138.779C343.265 140.682 343.834 142.578 344.083 144.509C344.767 149.815 345.358 155.133 345.892 160.455C346.604 167.546 347.3 174.641 347.867 181.745C348.466 189.252 348.878 196.773 349.442 204.283C349.521 205.341 349.622 206.228 349.651 207.276C349.689 208.688 349.808 210.246 349.801 211.663C349.775 216.974 349.835 222.286 349.909 227.597C349.915 228.029 350.203 228.771 350.481 228.831C351.575 229.068 352.739 229.267 353.836 229.141C354.873 229.023 355.833 228.64 356.117 227.267C357.228 221.887 356.349 216.615 355.396 211.332C354.723 207.6 354.014 203.873 353.391 200.133C352.594 195.355 351.844 190.569 351.118 185.78C350.415 181.146 349.761 176.503 349.097 171.863C348.41 167.059 347.767 162.25 347.05 157.45C346.034 150.656 344.968 143.869 343.918 137.048ZM317.438 159.183C319.222 158.325 320.833 157.57 322.422 156.776C323.377 156.299 324.488 155.939 325.205 155.219C329.712 150.696 330.884 145.328 329.03 139.317C328.922 138.967 328.267 138.548 327.866 138.546C325.068 138.534 322.268 138.698 319.472 138.642C318.337 138.62 317.596 138.99 317.018 139.832C316.185 141.045 315.481 142.358 314.524 143.465C313.861 144.234 313.781 144.809 314.08 145.758C315.367 149.839 317.3 153.777 317.223 158.184C317.219 158.425 317.323 158.668 317.438 159.183ZM279.31 241.229C280.596 241.129 281.826 241.015 283.058 240.942C286.766 240.722 290.474 240.515 294.182 240.312C295.217 240.255 296.252 240.211 297.288 240.192C299.729 240.15 302.193 240.317 304.608 240.059C310.816 239.396 316.927 240.211 323.068 240.875C325.944 241.186 328.857 241.209 331.756 241.275C335.657 241.364 339.53 241.428 343.049 243.485C344.358 244.252 345.833 244.749 347.232 245.369C347.2 244.57 346.783 244.119 346.818 243.705C346.894 242.826 346.449 242.536 345.763 242.118C341.547 239.545 336.637 239.665 332.03 238.628C331.084 238.415 330.098 238.338 329.126 238.281C327.313 238.176 325.488 238.219 323.683 238.047C316.679 237.379 309.694 236.457 302.677 236.011C298.207 235.727 293.668 235.869 289.208 236.292C286.318 236.565 283.504 237.647 280.681 238.449C279.259 238.853 278.795 239.843 279.31 241.229ZM295.517 136.159C295.755 136.507 296.245 136.895 296.229 137.26C296.171 138.615 295.99 139.969 295.774 141.31C295.394 143.672 295.895 145.758 297.57 147.571C298.12 148.166 298.538 148.878 299.01 149.54C300.105 151.079 301.197 152.62 302.432 154.359C302.851 152.91 303.012 151.795 303.488 150.828C304.445 148.881 305.544 146.999 306.642 145.121C307.489 143.672 307.218 142.326 305.936 141.135C305.353 140.593 305.014 139.801 304.579 139.113C304.297 138.669 304.12 137.885 303.765 137.804C301.015 137.176 298.233 136.683 295.517 136.159ZM304.302 233.795C304.964 233.792 305.626 233.811 306.423 233.822C297.627 222.355 288.964 211.061 280.113 199.522C280.089 202.073 280.067 204.397 280.05 206.165C281.256 207.073 282.221 207.57 282.865 208.325C285.447 211.353 287.942 214.451 290.446 217.542C292.533 220.118 294.633 222.687 296.64 225.322M279.653 217.509C281.157 218.906 282.417 219.857 283.393 221.03C285.056 223.028 286.573 225.146 288.093 227.253C289.587 229.323 291.003 231.447 292.475 233.533C292.603 233.714 292.893 233.897 293.103 233.893C294.114 233.874 295.124 233.791 296.389 233.716C290.821 226.625 286.733 218.844 279.76 212.717C279.715 214.725 279.677 216.416 279.653 217.509ZM279.273 236.669C282.139 235.9 284.714 235.21 287.317 234.512C285.104 230.578 282.936 226.853 279.603 223.762C279.532 224.172 279.551 227.007 279.353 228.76C279.076 231.219 279.287 233.95 279.273 236.669ZM338.565 136.982C338.13 135.707 338.096 134.223 337.333 133.63C335.012 131.828 335.1 129.526 335.149 127.083C335.175 125.785 334.925 124.481 334.8 123.179C334.623 123.181 334.446 123.183 334.27 123.186C334.16 123.555 333.953 123.924 333.958 124.293C333.985 126.354 333.931 128.43 334.182 130.47C334.309 131.503 334.818 132.64 335.521 133.416C336.201 134.166 336.383 134.591 335.837 135.457C335.219 136.437 335.68 137.134 336.845 137.169C337.301 137.182 337.76 137.074 338.565 136.982ZM294.422 135.939C292.653 135.561 290.666 135.136 288.321 134.635C290.09 137.133 291.643 139.323 293.427 141.843C293.804 139.609 294.099 137.858 294.422 135.939ZM282.117 129.769C282.238 129.697 282.359 129.626 282.481 129.555C283.27 130.494 284.059 131.433 284.848 132.372C283.963 130.479 283.6 128.348 282.261 126.766C282.108 126.839 281.954 126.913 281.8 126.986C281.958 127.641 282.117 128.295 282.275 128.949C280.672 127.35 280.168 126.872 279.852 126.938C280.095 127.627 280.34 128.318 280.584 129.01L280.3 129.127C279.566 128.071 278.832 127.014 278.097 125.958C277.969 126.028 277.841 126.099 277.713 126.169C277.819 126.618 277.926 127.067 278.031 127.509C277.647 127.633 277.32 127.739 276.994 127.845C276.958 128.007 276.922 128.17 276.886 128.332C278.703 127.724 278.782 131.113 280.998 129.494C281.706 130.411 282.359 131.255 283.012 132.1C283.078 132.054 283.145 132.007 283.211 131.961C282.846 131.23 282.481 130.5 282.117 129.769ZM282.324 117.539C282.193 117.491 282.061 117.443 281.931 117.396C281.835 118.766 281.711 120.135 281.661 121.507C281.647 121.891 281.795 122.593 281.963 122.623C283.53 122.898 282.931 124.136 283.151 124.987C283.378 125.866 283.411 126.814 283.768 127.633C284.404 129.091 285.22 130.474 285.961 131.889C285.998 131.844 286.035 131.8 286.072 131.756C284.823 127.017 283.573 122.278 282.324 117.539ZM267.631 111.067L267.145 111.169C267.632 113.066 268.007 115.001 268.679 116.834C268.869 117.352 269.927 117.572 270.577 117.923C269.94 113.872 269.312 109.878 268.655 105.704C268.099 106.484 267.769 106.949 267.672 107.085C268.013 108.09 268.409 108.834 268.498 109.609C268.726 111.589 268.408 113.652 269.685 115.448C269.842 115.669 269.662 116.115 269.638 116.457C269.478 116.469 269.318 116.481 269.158 116.493C268.649 114.684 268.14 112.875 267.631 111.067ZM335.253 137.015C334.026 134.759 332.919 132.722 331.811 130.684C331.694 130.692 331.577 130.701 331.461 130.709C331.799 132.84 332.137 134.97 332.476 137.106C333.497 137.072 334.152 137.051 335.253 137.015ZM294.034 73.1515C294.105 73.3785 294.177 73.6055 294.248 73.8325C294.819 73.7995 295.556 73.9775 295.933 73.6975C297.989 72.1685 299.956 70.5275 301.954 68.9245C301.845 68.7765 301.736 68.6285 301.627 68.4805C299.096 70.0375 296.565 71.5945 294.034 73.1515ZM286.292 125.852C286.112 125.929 285.932 126.007 285.753 126.085C286.519 130.912 287.271 132.457 289.138 132.693C288.164 130.353 287.228 128.103 286.292 125.852ZM307.945 58.5035C307.877 58.4275 307.809 58.3525 307.741 58.2775C306.148 59.5625 304.518 60.8065 302.974 62.1465C301.774 63.1875 300.682 64.3465 299.542 65.4535C299.78 65.7095 300.019 65.9645 300.257 66.2205C302.82 63.6485 305.382 61.0755 307.945 58.5035ZM274.127 58.9805C277.188 57.9225 279.588 55.9755 281.661 53.5895C279.216 55.4755 275.97 56.2845 274.127 58.9805ZM346.675 130.296C346.858 130.781 346.943 131.167 347.139 131.487C347.383 131.886 347.719 132.233 348.015 132.602C348.254 132.096 348.683 131.593 348.692 131.082C348.712 129.991 348.573 128.886 348.387 127.805C348.24 126.957 347.924 126.136 347.683 125.303C347.503 125.343 347.322 125.383 347.142 125.423C347.398 126.928 347.654 128.432 347.93 130.056C347.776 130.086 347.36 130.165 346.675 130.296ZM309.658 58.3505C309.764 58.5025 309.87 58.6545 309.976 58.8065C312.769 58.2875 314.518 56.2955 316.413 54.5115C316.34 54.4025 316.266 54.2945 316.193 54.1855C314.015 55.5735 311.836 56.9625 309.658 58.3505ZM340.238 131.483C340.552 131.438 340.866 131.394 341.18 131.349C340.661 128.76 340.142 126.17 339.623 123.581C339.422 123.614 339.221 123.648 339.021 123.681C339.426 126.282 339.832 128.882 340.238 131.483ZM320.973 62.9255C319.239 62.1955 315.301 64.1175 314.79 65.9685C316.918 64.9215 318.873 63.9595 320.973 62.9255ZM355.835 114.75C355.022 113.997 354.481 113.497 353.62 112.699C353.904 114.547 354.136 116.051 354.368 117.556C354.622 117.565 354.875 117.574 355.129 117.584C355.399 116.498 355.67 115.412 355.835 114.75ZM297.311 132.104C295.776 132.894 296.408 133.844 296.813 134.661C297.255 135.553 298.037 135.762 299.161 135.277C298.519 134.177 297.932 133.17 297.311 132.104ZM326.661 44.5185C324.777 42.9945 322.472 43.2465 321.273 45.0425C323.088 44.8655 324.662 44.7125 326.661 44.5185ZM352.803 122.907C352.957 122.952 353.112 122.998 353.267 123.044C353.591 122.061 354.134 121.085 354.161 120.093C354.179 119.463 353.431 118.81 353.027 118.167C352.882 118.242 352.737 118.317 352.592 118.393C352.662 119.898 352.733 121.402 352.803 122.907ZM293.799 48.4285C290.591 48.8215 288.189 50.5715 285.991 52.6595C288.593 51.2495 291.196 49.8385 293.799 48.4285ZM286.95 46.6455C287.029 46.7605 287.108 46.8765 287.187 46.9915C289.455 45.8625 291.722 44.7335 293.99 43.6045C293.905 43.4485 293.82 43.2935 293.735 43.1385C291.139 43.6825 289.194 45.4425 286.95 46.6455ZM338.949 135.519C340.523 136.785 342.14 137.03 342.769 136.001C343.093 135.47 342.51 134.412 342.337 133.592C341.542 134.999 341.075 136.44 338.949 135.519ZM346.596 118.045C346.46 118.039 346.324 118.033 346.188 118.026C346.152 120.265 346.116 122.504 346.075 125.112C347.571 122.573 346.671 120.289 346.596 118.045ZM348.605 113.351C348.412 113.316 348.22 113.28 348.027 113.245C347.907 114.953 347.788 116.661 347.659 118.506C349.449 116.891 348.256 115.02 348.605 113.351ZM329.331 64.1355C329.403 64.2625 329.476 64.3885 329.549 64.5155C331.092 63.7525 332.635 62.9885 334.179 62.2245C334.196 62.0975 334.212 61.9705 334.229 61.8435C333.835 61.7605 333.314 61.4795 333.068 61.6275C331.784 62.4035 330.569 63.2885 329.331 64.1355ZM282.826 67.6045C282.739 67.4215 282.653 67.2395 282.566 67.0575C280.55 67.3195 279.327 68.9085 277.725 69.8645C277.8 69.9925 277.874 70.1205 277.948 70.2485C279.574 69.3665 281.2 68.4845 282.826 67.6045ZM303.686 135.098C303.221 135.55 302.845 135.915 302.267 136.477C303.716 136.687 304.901 136.858 306.087 137.03C306.151 136.842 306.216 136.654 306.28 136.467C305.464 136.036 304.648 135.606 303.686 135.098ZM290.765 47.3235C290.678 47.1565 290.591 46.9895 290.504 46.8225C288.524 47.6985 286.544 48.5745 284.563 49.4515C284.643 49.6205 284.723 49.7885 284.802 49.9575C286.79 49.0795 288.777 48.2015 290.765 47.3235ZM307.859 68.4695C307.748 68.2785 307.637 68.0875 307.526 67.8965C305.615 69.0275 303.704 70.1595 301.792 71.2925C301.886 71.4445 301.98 71.5975 302.074 71.7505C304.003 70.6565 305.931 69.5635 307.859 68.4695ZM342.914 126.149C343.034 126.108 343.155 126.067 343.275 126.025C342.785 124.505 342.296 122.986 341.807 121.467C341.707 121.484 341.607 121.503 341.507 121.52C341.484 122.788 341.46 124.056 341.432 125.553C341.881 125.108 342.105 124.885 342.471 124.522C342.659 125.213 342.787 125.681 342.914 126.149ZM304.738 64.4855C304.849 64.6755 304.96 64.8655 305.072 65.0555C306.681 64.2165 308.29 63.3785 309.9 62.5385C309.805 62.3685 309.711 62.1995 309.616 62.0295C307.99 62.8475 306.364 63.6665 304.738 64.4855ZM330.89 70.5855C330.774 70.3915 330.658 70.1965 330.542 70.0025C328.714 71.0745 326.886 72.1465 325.057 73.2185L325.234 73.5085L330.89 70.5855ZM348.704 58.7975C346.558 57.9115 345.433 59.5615 344.052 60.6375C345.602 60.0245 347.153 59.4105 348.704 58.7975ZM337.336 65.0525C337.274 64.9235 337.213 64.7955 337.151 64.6665C335.295 65.5645 333.438 66.4625 331.582 67.3595C331.678 67.5385 331.775 67.7175 331.872 67.8965C333.693 66.9485 335.515 66.0005 337.336 65.0525ZM345.74 131.331C345.356 131.538 345.107 131.723 344.827 131.807C344.567 131.886 344.273 131.858 343.982 131.878C344.52 134.171 344.637 134.222 346.202 132.916C346.066 132.448 345.928 131.975 345.74 131.331ZM289.08 64.5155C288.969 64.3085 288.857 64.1015 288.746 63.8945C287.26 64.6385 285.773 65.3825 284.287 66.1265C284.37 66.2935 284.454 66.4595 284.537 66.6255C286.051 65.9225 287.566 65.2195 289.08 64.5155ZM296.486 128.726C295.159 129.286 295.192 130.727 296.411 132.061C297.611 130.969 296.342 129.927 296.486 128.726ZM295.203 134.161C295.353 134.053 295.503 133.945 295.653 133.838C295.222 132.871 294.791 131.903 294.247 130.684C293.824 131.374 293.578 131.775 293.311 132.213C293.981 132.902 294.592 133.532 295.203 134.161ZM306.14 40.1445C308.223 40.9785 309.828 41.0075 311.369 39.9275C309.782 39.9935 308.195 40.0595 306.14 40.1445ZM341.775 133.201C340.604 132.96 339.936 132.822 339.268 132.684C339.219 132.991 339.024 133.388 339.152 133.586C339.431 134.016 339.876 134.345 340.253 134.716C340.637 134.333 341.022 133.95 341.775 133.201ZM346.561 73.3365C346.473 73.2185 346.386 73.1025 346.299 72.9845C344.794 74.0145 343.289 75.0455 341.783 76.0745C341.889 76.2175 341.996 76.3605 342.102 76.5035C343.588 75.4475 345.074 74.3925 346.561 73.3365ZM290.804 133.437C290.974 133.314 291.145 133.19 291.315 133.067C290.509 132.186 291.116 130.269 288.739 130.164C289.53 131.418 290.167 132.427 290.804 133.437ZM348.199 56.4235C348.864 57.5105 349.496 58.0485 350.255 57.1995C350.517 56.9065 350.465 56.3485 350.556 55.9115C349.77 56.0825 348.984 56.2535 348.199 56.4235ZM273.23 123.702C273.346 123.631 273.463 123.559 273.579 123.487C273.244 122.835 272.936 122.168 272.566 121.535C272.232 120.965 271.831 120.433 271.459 119.883C271.244 120.037 271.029 120.19 270.813 120.342C271.619 121.463 272.424 122.583 273.23 123.702ZM324.157 39.3755C324.708 40.6285 326.578 41.0825 327.911 40.1725C326.532 39.8795 325.411 39.6415 324.157 39.3755ZM327.163 123.811C327.451 123.81 327.739 123.808 328.027 123.807C328.446 122.476 327.652 121.218 327.579 119.917C327.436 119.921 327.293 119.924 327.15 119.928C327.154 121.222 327.159 122.517 327.163 123.811ZM344.31 123.181C343.813 125.876 343.98 126.346 345.434 126.469C345.046 125.334 344.678 124.257 344.31 123.181ZM270.391 72.1245C271.063 71.2935 271.612 70.6155 272.231 69.8505C269.64 70.0565 269.541 70.1665 270.391 72.1245ZM343.736 68.9295C343.671 68.7465 343.606 68.5625 343.541 68.3785C342.217 68.8775 340.893 69.3765 339.57 69.8755C339.665 70.0965 339.761 70.3175 339.857 70.5395C341.15 70.0035 342.444 69.4665 343.736 68.9295ZM340.864 73.3835C339.166 72.2785 338.267 73.4425 337.254 74.2875C338.457 73.9865 339.661 73.6855 340.864 73.3835ZM336.479 128.133C336.226 128.185 335.974 128.236 335.721 128.288C336.027 129.47 336.333 130.653 336.638 131.836C336.854 131.786 337.07 131.736 337.285 131.686C337.016 130.502 336.748 129.317 336.479 128.133ZM305.675 54.5865C305.772 54.7555 305.87 54.9255 305.967 55.0955C307.252 54.4545 308.537 53.8145 309.823 53.1725C309.742 53.0225 309.661 52.8705 309.581 52.7195C308.279 53.3415 306.977 53.9635 305.675 54.5865ZM293.427 54.6765C293.481 54.7915 293.534 54.9065 293.588 55.0215C295.161 54.3615 296.735 53.7025 298.308 53.0435C298.241 52.9015 298.174 52.7585 298.107 52.6165C296.547 53.3025 294.987 53.9895 293.427 54.6765ZM345.802 64.7335C345.691 64.5055 345.58 64.2785 345.469 64.0515C344.414 64.2275 343.663 65.0225 342.809 65.6085L343.003 66.0055C343.936 65.5815 344.869 65.1575 345.802 64.7335ZM318.436 42.8445C318.388 42.6755 318.34 42.5065 318.292 42.3375C317.082 42.6625 315.871 42.9875 314.661 43.3125C314.71 43.4895 314.76 43.6665 314.81 43.8425C316.018 43.5095 317.227 43.1775 318.436 42.8445ZM286.121 121.15C286.251 121.138 286.382 121.126 286.512 121.113C286.384 119.706 286.257 118.298 286.129 116.89C285.973 116.905 285.817 116.92 285.661 116.935C285.814 118.34 285.967 119.745 286.121 121.15ZM275.22 122.19C275.349 122.158 275.477 122.126 275.605 122.093C275.143 120.465 274.682 118.838 274.22 117.21C274.089 117.242 273.958 117.274 273.827 117.306C274.291 118.934 274.756 120.563 275.22 122.19ZM301.848 62.3455C301.756 62.2495 301.664 62.1525 301.572 62.0565C300.552 62.8195 299.533 63.5835 298.513 64.3465C298.649 64.5095 298.786 64.6715 298.923 64.8345C299.898 64.0045 300.873 63.1755 301.848 62.3455ZM292.752 40.5525C292.696 40.4155 292.64 40.2795 292.585 40.1435C291.249 40.6335 289.913 41.1245 288.578 41.6145C288.637 41.7585 288.697 41.9035 288.756 42.0475C290.088 41.5485 291.42 41.0505 292.752 40.5525ZM355.647 78.1605C355.739 78.2925 355.831 78.4235 355.922 78.5555C358.324 77.6935 358.324 77.6935 358.29 76.5795C357.341 77.1475 356.494 77.6535 355.647 78.1605ZM272.627 117.067C272.48 117.093 272.334 117.119 272.188 117.146C272.577 118.437 272.966 119.728 273.355 121.02C273.497 120.979 273.638 120.939 273.78 120.899C273.395 119.622 273.011 118.344 272.627 117.067ZM312.169 40.9875C312.194 41.1785 312.22 41.3705 312.245 41.5615C313.502 41.4305 314.76 41.3005 316.017 41.1695C315.999 41.0015 315.98 40.8325 315.962 40.6635C314.697 40.7715 313.433 40.8795 312.169 40.9875Z" fill="black"/>
<path d="M341.921 262.266C340.992 260.995 339.983 259.771 339.157 258.439C338.278 257.022 337.616 255.48 336.776 254.038C336.296 253.214 336.347 252.578 337.191 252.138C338.08 251.675 338.697 252.121 339.043 252.92C340.185 255.558 341.311 258.201 342.398 260.86C342.541 261.209 342.415 261.662 342.413 262.066C342.249 262.133 342.085 262.2 341.921 262.266Z" fill="black"/>
<path d="M286.158 249.45C286.402 253.887 282.445 256.25 280.888 259.797C280.668 259.759 280.449 259.72 280.229 259.681C280.198 259.237 279.976 258.686 280.164 258.366C281.974 255.29 283.853 252.254 285.712 249.207C285.861 249.288 286.009 249.369 286.158 249.45Z" fill="black"/>
<path d="M318.919 120.997C318.794 121.444 318.668 121.891 318.543 122.337C318.179 122.141 317.816 121.941 317.45 121.747C316.499 121.244 315.689 119.817 314.395 121.366C314.29 121.492 313.233 120.864 312.258 120.422C311.702 120.46 310.656 120.531 309.5 120.609C308.2 118.769 308.263 116.431 309.885 114.87C310.545 116.522 308.425 118.119 309.913 119.783C310.28 118.268 310.622 116.859 310.963 115.452C311.179 115.495 311.395 115.538 311.611 115.581C311.539 116.126 311.48 116.673 311.391 117.215C311.319 117.659 311.087 118.117 311.157 118.532C311.216 118.875 311.612 119.166 311.859 119.48C312.109 119.135 312.523 118.813 312.578 118.439C312.799 116.957 312.884 115.456 313.08 113.97C313.116 113.696 313.432 113.459 313.619 113.204C313.746 113.244 313.873 113.283 314.001 113.322C313.821 114.466 313.536 115.606 313.49 116.756C313.443 117.943 313.629 119.14 313.716 120.381C314.8 120.135 315.033 119.661 314.981 118.707C314.902 117.263 315.137 115.803 315.239 114.35C315.452 114.361 315.665 114.372 315.877 114.382C315.772 115.896 315.666 117.409 315.56 118.923C315.673 118.933 315.785 118.943 315.898 118.953C316.178 117.433 316.459 115.912 316.744 114.366C318.444 114.828 318.596 115.7 318.237 117.027C317.967 118.025 318.051 119.136 318.119 120.188C318.139 120.488 318.653 120.759 318.94 121.044L318.919 120.997Z" fill="black"/>
<path d="M305.679 121.222C305.966 119.336 306.193 117.844 306.421 116.352C306.626 116.374 306.831 116.396 307.036 116.418C307.649 118.306 305.585 120.44 307.722 122.187C307.603 122.257 307.484 122.327 307.366 122.396C307.074 122.312 306.784 122.167 306.489 122.155C305.889 122.13 305.153 121.968 304.711 122.235C303.449 122.996 302.807 122.88 302.299 121.482C302.131 121.023 302.107 120.515 301.828 120.018C301.799 120.428 301.771 120.837 301.735 121.348C300.811 120.339 300.068 117.053 301.949 116.672C301.96 117.324 301.972 117.975 301.985 118.731C302.29 117.894 302.564 117.142 302.837 116.39C302.916 116.437 302.994 116.484 303.072 116.53C303.154 118.218 303.228 119.907 303.347 121.593C303.353 121.677 303.76 121.736 304.136 121.856C303.758 119.573 303.319 117.424 304.584 115.395C305.035 117.207 303.452 119.37 305.679 121.222Z" fill="black"/>
<path d="M312.712 127.792C312.682 127.789 312.653 127.784 312.623 127.776C311.652 127.542 310.016 127.199 308.426 126.712C308.216 126.648 308.06 126.415 307.914 126.153C307.742 125.849 307.859 125.467 308.175 125.308C308.533 125.127 308.888 124.962 309.189 125.029C310.635 125.353 312.002 126.065 313.455 126.303C315.308 126.606 317.177 126.798 318.749 125.795C318.97 125.655 319.263 125.621 319.576 125.618C320.047 125.613 320.37 126.085 320.168 126.498C320.01 126.818 319.832 127.104 319.572 127.24C317.73 128.202 315.596 128.109 312.712 127.792Z" fill="black"/>
<path d="M325.395 96.9579C325.494 96.5269 325.512 95.9299 325.771 95.4599C326.039 94.9759 326.543 94.6149 326.943 94.1999C327.438 94.6579 328.187 95.0369 328.369 95.5909C328.661 96.4789 328.666 97.4869 328.624 98.4369C328.585 99.3389 328.227 100.121 327.057 100.144C325.84 100.168 325.419 99.5039 325.409 98.4419C325.405 97.9869 325.4 97.5319 325.395 96.9579Z" fill="black"/>
<path d="M291.854 96.5649C292.032 96.1509 292.225 95.3569 292.675 94.7409C293.334 93.8379 294.517 94.0089 294.791 95.0789C295.098 96.2799 295.275 97.5729 295.143 98.7869C295.096 99.2189 294 99.7649 293.339 99.8249C292.901 99.8649 292.204 99.2229 291.954 98.7279C291.707 98.2379 291.876 97.5509 291.854 96.5649Z" fill="black"/>
<path d="M318.94 121.044C319.092 119.397 319.225 117.748 319.408 116.105C319.463 115.603 319.658 115.115 319.788 114.621C319.928 114.642 320.068 114.663 320.207 114.684C320.132 115.757 320.057 116.83 319.969 118.099C320.383 117.422 320.685 116.93 320.988 116.438C321.15 116.478 321.313 116.518 321.475 116.558C321.343 117.336 321.219 118.114 321.077 118.891C320.947 119.601 320.518 120.326 321.6 120.815C321.772 120.892 321.495 121.919 321.425 122.507C320.946 122.445 320.374 122.521 320.012 122.287C319.559 121.993 319.279 121.446 318.921 121.002C318.919 120.997 318.94 121.044 318.94 121.044Z" fill="black"/>
<path d="M315.075 111.753C314.011 112.878 312.771 112.43 311.88 112.049C311.136 111.731 310.545 110.779 310.193 109.981C309.934 109.393 310.136 108.596 310.208 107.899C310.232 107.659 310.463 107.267 310.633 107.25C310.939 107.218 311.367 107.333 311.565 107.545C311.784 107.779 311.88 108.189 311.895 108.527C311.961 109.965 312.603 110.889 314.125 111.173C314.433 111.231 314.697 111.514 315.075 111.753Z" fill="black"/>
<path d="M299.685 116.84C299.78 119.531 299.865 121.913 299.946 124.178C298.737 123.61 297.929 117.299 299.685 116.84Z" fill="black"/>
</svg>
